<svg xmlns="http://www.w3.org/2000/svg" width="1200" height="1200"><style>.st4{fill:#eeedee}.st5{opacity:.42;fill:#bdd3de}.st6{fill:none}.st8{fill:#336859}.st9{fill:#e4c9c2}.st11{fill:#271c41}.st20{fill:#5a142a}.st22{fill:#19233d}</style><g id="background"><g id="general"><g id="squares"><linearGradient id="SVGID_1_" gradientUnits="userSpaceOnUse" x1="1620.332" y1="1389.529" x2="1679.17" y2="1389.529" gradientTransform="matrix(-.9967 -.08101 .08101 -.9967 2628.13 2625.738)"><stop offset="0" stop-color="#ebdede"/><stop offset="1" stop-color="#f0e2e2"/></linearGradient><path fill="url(#SVGID_1_)" d="M1069.4 1075.4l58.7 4.8-4.8 58.6-58.6-4.7z"/><linearGradient id="SVGID_2_" gradientUnits="userSpaceOnUse" x1="2603.091" y1="2118.22" x2="2643.679" y2="2118.22" gradientTransform="rotate(-164.395 1375.051 1250.098)"><stop offset="0" stop-color="#ebdede"/><stop offset="1" stop-color="#f0e2e2"/></linearGradient><path fill="url(#SVGID_2_)" d="M392.2 53.1L431.3 64l-10.9 39.1-39.1-10.9z"/></g><g id="circles"><linearGradient id="SVGID_3_" gradientUnits="userSpaceOnUse" x1="398.221" y1="1209.02" x2="434.821" y2="1209.02" gradientTransform="rotate(23.373 1064.275 184.062)"><stop offset="0" stop-color="#f4dba9"/><stop offset=".998" stop-color="#f0e2e2"/></linearGradient><circle cx="63" cy="868" r="18.3" fill="url(#SVGID_3_)"/><linearGradient id="SVGID_4_" gradientUnits="userSpaceOnUse" x1="1146.985" y1="554.472" x2="1199.32" y2="554.472" gradientTransform="rotate(23.373 1064.275 184.062)"><stop offset="0" stop-color="#f4dba9"/><stop offset=".998" stop-color="#f0e2e2"/></linearGradient><circle cx="1017.2" cy="567.3" r="26.2" fill="url(#SVGID_4_)"/></g><g id="figure3"><path class="st4" d="M1145.1 904.4c-90 195.5-360.5 306-503.8 230.9-38-19.9-88.1-63.7-82.7-104.3 3.8-28.4 32.4-34.3 102.9-85.7 63-45.9 113.4-83.5 144.3-145.3 11-21.9 17.1-43.9 29.4-88 25.4-90.9 18.4-118.5 40.6-131 29.9-16.9 56.8 25.3 138.9 37.6 73.1 11 95.6-15.9 124.8 1.2 55.5 32.6 55 177.3 5.6 284.6z"/><path class="st5" d="M690.8 1114.8c0 13.1-3.8 25.3-10.4 35.6-13.8-3.8-26.9-8.8-39.1-15.2-24.2-12.7-53.3-35.1-69.9-60.2 12.1-16.1 31.4-26.6 53.1-26.6 36.7.2 66.3 29.8 66.3 66.4zm460.8-225.4c-2.1 5.1-4.2 10.1-6.5 15-29.7 64.4-78.9 119.6-136.8 162-16.6-21-26.7-48.5-26.7-78.7 0-66.1 48.5-119.6 108.3-119.6 22.9 0 44.2 7.8 61.7 21.3zm-91.7-226.8c-2.2 80.6-69.3 144.2-149.9 142-35-.9-66.8-14.2-91.5-35.4 5-14.7 9.9-32.4 16.8-57.1 25.4-90.9 18.4-118.5 40.6-131 29.9-16.9 56.8 25.3 138.8 37.7 15.6 2.3 28.9 3 40.4 2.7 3.5 13 5.1 26.8 4.8 41.1z"/><path class="st6" d="M1151.6 889.4c-2.1 5.1-4.2 10.1-6.5 15-29.7 64.4-78.9 119.6-136.8 162-102.8 75.2-232.6 110-327.8 84.1-13.8-3.8-26.9-8.8-39.1-15.2-24.2-12.7-53.3-35.1-69.9-60.2-9.4-14.3-14.8-29.4-12.8-44.1 3.8-28.4 32.4-34.3 102.9-85.7 63-45.9 113.4-83.5 144.3-145.3 4.8-9.7 8.7-19.3 12.6-30.9 5-14.7 9.9-32.4 16.8-57.1 25.4-90.9 18.4-118.5 40.6-131 29.9-16.9 56.8 25.3 138.8 37.7 15.6 2.3 28.9 3 40.4 2.7 42.6-1.1 61.5-15 84.4-1.5 52.9 31.1 54.9 164.2 12.1 269.5z"/></g><linearGradient id="figure2_1_" gradientUnits="userSpaceOnUse" x1="69.914" y1="831.577" x2="808.477" y2="831.577"><stop offset="0" stop-color="#ebdede"/><stop offset="1" stop-color="#f0e2e2"/></linearGradient><path id="figure2" d="M730.1 772c-116.3 144.1-239.7 121.8-281.6 233.5-21.4 57.3 6.4 80.4-21.7 117.1-64.3 84.1-293.4 71.3-345.8-34.3-26.1-52.5-1.6-114.4 25.8-183.7 37.6-95.1 93-154.8 129.7-193.6 0 0 133-140.5 320.1-200.5 6.8-2.2 40.1-12.7 85.5-18.3 66.4-8.3 119.2-14.9 147.4 14.4 30.7 31.9 17.1 90.6 8.2 129.4-15.9 68.3-50.8 115.2-67.6 136z" fill="url(#figure2_1_)"/><g id="figure1"><path class="st4" d="M1155.8 225.5c.8 4 2 10.6 3.3 19.1 5.5 35.6 17.2 189.4-41.5 245.8-55.9 53.8-141.1-14.4-338.8-27.2-76.7-5-226.7-14.7-365.6 49.6-206 95.2-254.1 291.4-321.7 269.8-55.8-17.8-56.3-162.1-55-285.8 2-187.8 3.6-341.2 88.1-383.6 104.6-52.5 247.3 110.5 341.8 45.1 54-37.4 29.3-104.2 80.1-128.2 91-43.1 229.1 143.7 313.4 98.4 42.4-22.7 24.9-79.3 72.7-100.8 54.5-24.5 137.7 29.8 180.3 88.3 6 8.2 30.3 42.8 42.9 109.5z"/><path class="st5" d="M1163.6 301.1c-18.2 34.5-38 68.1-59.4 100.8-20.5 31.3-41.9 62.2-65.9 91-3.9 4.6-7.8 9.3-11.9 13.9 6.1 1.1 12 2 17.6 2.7 4.6-5.4 9.1-11 13.4-16.5 24.4-30.7 46.7-63.1 67.8-96.1 13.5-21.1 26.3-42.7 38.5-64.6.2-10.8.2-21.4-.1-31.2zm-65.8-127.2c7.9-14.3 16.3-28.4 25.3-42.1-3.6-6.3-6.7-10.9-8.7-13.8-11.6 16.9-22.1 34.6-31.9 52.6-38.2 70.5-64.3 147.9-75.6 227.3-4.8 33.9-9.4 69.3-6.4 103.6 5.3 1.2 10.4 2.3 15.3 3.3-.2-2.1-.4-4.2-.5-6.2-2.7-37.7 2.5-77 8.8-114.1 12.6-73.7 37.6-145.1 73.7-210.6zm-85.6 25.1c13.2-38.9 25.8-78.5 34.5-118.7 1.7-8 3.4-16.2 4.8-24.4-4.6-3.2-9.2-6.3-13.9-9.2-3.4 23.2-8.9 46.2-15.2 68.8-10.3 36.8-22 73.2-35.1 109.1-25.6 70.4-57.1 138.9-97 202.4-4.6 7.3-9.4 14.6-14.3 21.8-2.8-17-4.6-34.2-5.9-51.4-3-38.4-2.9-77-1.3-115.5 1.6-39.3 3.9-78.7 8.2-117.8 2.6-23.1 6-46.2 10.8-68.9-4.5 10.9-10.4 20.9-20.5 28.6-3.1 19.3-5.3 38.8-7.2 58.2-7.8 81.9-12 166-1.9 247.8 1.5 12.2 3.3 24.3 5.7 36.3-1.4 1.9-2.7 3.8-4.1 5.7 1.8.3 3.7.6 5.5.9 3.7.6 7.4 1.2 11 1.8 1.6.3 3.2.6 4.9.8-.4-1.9-.9-3.9-1.3-5.8 11.4-16.1 22.2-32.7 32.4-49.6 41.7-69.3 73.8-144.3 99.9-220.9zM734 231.6c-13.6 75.8-31.2 151-54.4 224.5-.4 1.1-.7 2.3-1.1 3.4h15.7c1.7-5.3 3.3-10.7 5-16 23.8-78.8 41.6-159.4 54.9-240.6 4.7-28.9 8.9-58 11.2-87.3-4.7-2.4-9.4-5-14.1-7.7-2.6 41.7-10 83.5-17.2 123.7zM636.8 40.2c-4.6-2.2-9.1-4.2-13.6-6-.8 1.9-1.6 3.8-2.4 5.8-9 21.8-15.9 44.5-21.4 67.5-2.6-13.4-6.3-26.5-11.5-39-6.6-16.2-16.2-31.6-29.2-42.7-4.2 1-8.2 2.5-12.2 4.4-1.4.7-2.7 1.3-3.9 2 22.7 14.3 33.5 42.6 39.6 67.6 4.4 18 6.7 36.4 7.7 55-6.8 39.6-10.6 79.7-11.5 119.8-.3 15.4-.2 30.9.3 46.3-6.3 39.8-15.1 79.1-26.9 117.2-3.6 11.6-7.5 23.2-11.9 34.6 5.8-1.1 11.5-2.2 17.2-3.1 5.5-15.4 10.4-31 14.7-46.5 4.1-14.8 7.7-29.8 11-44.9.7 6.8 1.6 13.7 2.5 20.5 2.9 22 6.8 43.9 12.2 65.4 5.1-.5 10.1-1 15.1-1.5-12.2-46.3-17.9-94.7-19.2-142.9.8-5.1 1.5-10.2 2.2-15.3 5.7-41.1 9.7-82.4 9.7-123.9 0-8.2-.1-16.5-.5-24.9.8-4.9 1.8-9.8 2.7-14.6 6.7-34.3 15.3-68.7 29.3-100.8zM392.3 372.8c-3.1-38.3-3.5-76.8-1.5-115.2 1.5-28.3 4.3-56.5 9.8-84.3-4.9-.5-9.8-1.3-14.8-2.3-6.4 32.7-9.2 66.1-10.5 99.3-1.6 41.8-.3 83.6 4.2 125.2 4.4 40.8 11.6 81.4 21.9 121.1.1.5.2 1 .4 1.5 3.8-1.9 7.7-3.7 11.6-5.5.7-.3 1.5-.7 2.2-1-1.9-7.6-3.7-15.2-5.5-22.8-8.8-38.1-14.7-76.9-17.8-116zm-83.6-75.5c-12.6-58.8-28.8-117.8-51-174.1-6.4-2.5-12.8-4.9-19.1-7.1 26.3 63.4 44.7 130.7 58.3 197.7 15.6 76.5 23.5 154.2 24.3 232.2.1 7.4.1 14.8.1 22.2 4.9-3.7 9.9-7.4 15-11 0-4.6 0-9.2-.1-13.8-1-82.6-10.1-165.2-27.5-246.1zM162.9 438.5c-29.5-70.3-49.5-144.7-63.8-219.5-4.7-24.8-8.7-49.8-10.9-74.9-4.7 6.3-9 13.2-12.9 20.7 2.5 20.4 5.9 40.6 9.8 60.7 15.4 80.3 37.7 159.9 70.9 234.8 16.2 36.5 35.2 71.8 57.1 105.2 13.5 20.5 28.4 40.7 45.5 58.6 3.5-3.6 7-7.2 10.6-10.7-21.6-22.6-39.5-48.7-55.8-75.3-19.2-31.9-36-65.2-50.5-99.6zM57.6 333.7c-4.8-7.5-9.9-14.7-15.2-21.8-.6 7.6-1.2 15.4-1.7 23.4 6.3 9.3 12.1 19 17.6 28.8 36 65 56.5 139.1 72.2 211.4 11.1 51.2 17.9 104.3 14.8 156.8C102.6 681.8 66 626 36.4 566.7c.1 11.3.3 22.6.6 33.6 29.7 54.6 65.4 106.2 106.4 152.8-.3 3-.7 6-1.1 8.9 1.6-1.5 3.1-3.2 4.7-4.9 3.3-3.5 6.6-7.2 10.1-11.2.8-.9 1.5-1.8 2.3-2.7 5.2-62.4-3.7-125.7-17.8-186.5-17.8-76.8-40.9-156.2-84-223z"/><path class="st6" d="M1163.7 332.4c-1.3 57-11.4 124.6-46.1 158-19.7 19-43 22.8-73.7 19.2-5.6-.6-11.5-1.6-17.6-2.7-3.4-.6-7-1.3-10.6-2-4.9-1-10-2.1-15.3-3.3-32.4-7.3-71.4-17.7-119.4-26.1-1.6-.3-3.2-.6-4.9-.8-3.6-.6-7.3-1.2-11-1.8-1.8-.3-3.6-.6-5.5-.9-24.7-3.8-51.5-6.9-80.9-8.8-22.6-1.5-51.5-3.3-84.6-3.6h-15.7c-20.7.2-42.9 1-65.9 3-5 .4-10 .9-15.1 1.5-13.2 1.4-26.7 3.2-40.3 5.5-5.7.9-11.5 2-17.2 3.1-41 7.9-83.2 20.3-124.5 39.1-.7.3-1.5.7-2.2 1-3.9 1.8-7.8 3.7-11.6 5.5-23.9 11.8-45.6 25-65.4 39-5.1 3.6-10.1 7.3-15 11-19.1 14.5-36.3 29.8-51.9 45.2-3.6 3.6-7.2 7.1-10.6 10.7-42.9 44.2-73.6 88.4-99.4 119.1-.8.9-1.5 1.8-2.3 2.7-3.4 4-6.8 7.8-10.1 11.2-1.6 1.7-3.2 3.3-4.7 4.9-17.6 17.5-33.5 26.1-50.7 20.6-40.5-13-51.8-92.5-54.5-182.4-.3-11.1-.5-22.3-.6-33.6-.2-23.4 0-46.9.2-69.8.6-57.9 1.2-112.5 4.2-161.5.5-7.9 1-15.7 1.7-23.4 4.8-60.1 14.2-110.6 33.1-147.1 3.9-7.5 8.2-14.4 12.9-20.7 10-13.3 22-23.7 36.3-30.9 34.8-17.5 73.9-11.1 114 2.9 6.4 2.2 12.7 4.6 19.1 7.1 43.4 17.1 87.4 39.9 128 47.9 5 1 9.9 1.8 14.8 2.3 23.5 2.4 45.8-1.2 65.8-15 52.4-36.5 30.5-100.7 76-126.3 1.3-.7 2.6-1.4 3.9-2 4-1.9 8-3.3 12.2-4.4 19.9-5 41.7-.8 64.5 8.4 4.5 1.8 9 3.8 13.6 6 37.5 17.8 77 46.5 114.4 67.8 4.7 2.7 9.4 5.2 14.1 7.7 34.9 18.1 67.6 27.5 94.7 13 2.7-1.4 5.1-3 7.3-4.7 10.1-7.7 16-17.7 20.5-28.6 10.3-24.7 13.8-53.5 44.9-67.6 30.1-13.5 69-3 105 19 4.7 2.9 9.3 5.9 13.9 9.2 23.8 16.8 45.5 38.2 61.5 60.1.4.5.9 1.2 1.4 2 2.1 2.9 5.1 7.5 8.7 13.8 9.9 17.4 24.1 48 32.7 93.7.8 4 2 10.6 3.3 19.1 1.6 10.5 3.8 31.1 4.5 56.5.3 9.7.3 20.3.1 31.2z"/></g></g></g><g id="main"><g id="general_1_"><g id="boxes"><g id="box2"><path class="st8" d="M680.2 649.7v28h-5.8v164.9H571.7V677.7h-5.8v-28z"/><ellipse class="st9" cx="593.2" cy="705.6" rx="12" ry="12"/><path class="st9" d="M654.7 649.7c0 6.6-5.3 12-12 12-6.6 0-12-5.4-12-12h24zm19.7 58.8v18.3c-2.1 1.8-4.8 2.9-7.8 2.9-6.6 0-12-5.4-12-12s5.4-12 12-12c3-.1 5.7 1 7.8 2.8zm-94 116.2c0 5.5-3.7 10.1-8.7 11.5v-23.1c5 1.5 8.7 6.1 8.7 11.6z"/><ellipse class="st9" cx="617.9" cy="768.8" rx="12" ry="12"/><path class="st9" d="M576.1 649.7c-2.1 3.4-5.9 5.6-10.1 5.6v-5.6h10.1zm98.3 124.1v13.9c-1.4-2-2.2-4.4-2.2-7 0-2.5.8-4.9 2.2-6.9zm-20.6 62.9c0 2.1-.6 4.2-1.6 5.9h-20.8c-1-1.7-1.6-3.8-1.6-5.9 0-6.6 5.4-12 12-12s12 5.4 12 12z"/><path class="st6" d="M680.2 649.7v28h-5.8v164.9H571.7V677.7h-5.8v-28z"/><path fill="#fff" d="M656.7 734.8l-27.2 38.8-6-3.9-34.3-21.9 26.8-37.1 12.2 7.2z"/><path class="st11" d="M674.4 740.4v3.3h-49.7v98.9h-3.3v-98.9h-49.7v-3.3h49.7v-90.7h3.3v90.7z"/><linearGradient id="SVGID_5_" gradientUnits="userSpaceOnUse" x1="623.457" y1="745.761" x2="656.651" y2="745.761"><stop offset=".006" stop-color="#640042"/><stop offset="1" stop-color="#002544"/></linearGradient><path opacity=".12" fill="url(#SVGID_5_)" d="M656.7 734.8l-27.2 38.8-6-3.9 4.7-51.8z"/><linearGradient id="SVGID_6_" gradientUnits="userSpaceOnUse" x1="647.327" y1="746.164" x2="680.217" y2="746.164"><stop offset=".006" stop-color="#640042"/><stop offset="1" stop-color="#002544"/></linearGradient><path opacity=".12" fill="url(#SVGID_6_)" d="M680.2 649.7v28h-5.8v164.9h-27.1l7.8-98.9.3-3.3.3-4.2.1-1.9 6.7-84.6z"/></g><g id="box1"><path class="st11" d="M360.8 778.6h211v64h-211z"/><path class="st9" d="M571.7 791.3v3.3H467.9v48h-3.3v-48H360.8v-3.3h103.8v-12.7h3.3v12.7z"/><linearGradient id="SVGID_7_" gradientUnits="userSpaceOnUse" x1="470.054" y1="810.615" x2="571.722" y2="810.615"><stop offset=".006" stop-color="#640042"/><stop offset="1" stop-color="#002544"/></linearGradient><path d="M571.7 778.6v64H470.1c4.1-15.5 8.8-32.9 12.8-48l.9-3.3c1.2-4.5 2.3-8.8 3.4-12.7h84.5z" opacity=".09" fill="url(#SVGID_7_)"/></g><g id="box3"><path class="st9" d="M386 842.6h311.7v263.9H386z"/><linearGradient id="SVGID_8_" gradientUnits="userSpaceOnUse" x1="534.457" y1="974.574" x2="697.705" y2="974.574"><stop offset="0" stop-color="#365588" stop-opacity=".3"/><stop offset="1" stop-color="#e4c9c2" stop-opacity=".7"/></linearGradient><path opacity=".15" fill="url(#SVGID_8_)" d="M697.7 842.6v263.9H534.5l42.9-100.8 1.4-3.1 38.4-90.2 2.8-6.6 26.9-63.2z"/><linearGradient id="SVGID_9_" gradientUnits="userSpaceOnUse" x1="386.015" y1="974.574" x2="589.122" y2="974.574"><stop offset="0" stop-color="#fc860a" stop-opacity=".2"/><stop offset="1" stop-color="#e4c9c2" stop-opacity=".2"/></linearGradient><path fill="url(#SVGID_9_)" d="M589.1 1106.5H386V842.6h148.6l23.7 115 .8 3.6 6.2 29.9 1 5.2z"/><path opacity=".4" fill="#271c41" d="M559.1 961.2l-14.7 12.3 20.9 17.6 13.5 11.5 118.9 100.7v3.2h-1.3l-119-100.8-11.1-9.4-24.4-20.7L386 1106.5v-4.2l153.4-128.8-153.4-130v-.9h4l151.9 128.8 16.4-13.8 61.7-51.8 75.2-63.2h2.5v2.2l-80.5 67.6z"/></g></g><g id="woman"><g id="socks"><path class="st8" d="M721.9 1094.6c-.1 1.1-.2 2.2-.3 3.4l-3.9 43.2c-.2 2-1.8 3.6-3.8 3.8-.4.1-.7.1-1.1.2-.2 0-.4 0-.6.1-.3 0-.6.1-.9.1-.2 0-.5.1-.8.1-.4 0-.7.1-1.1.1-.8.1-1.8.2-2.7.3-.3 0-.7.1-1 .1-.5.1-.9.1-1.4.2-.3 0-.7.1-1 .1-.7.1-1.4.2-2 .3h-.1c-.4 0-.7.1-1.1.1-.9.1-1.8.2-2.8.4-.3 0-.7.1-1 .1-.3 0-.6.1-.9.1-.6.1-1.2.1-1.8.2-.4 0-.7.1-1.1.1-1 .1-2 .3-3 .4-.5.1-1.1.1-1.6.2s-1.1.1-1.7.2c-1.3.2-2.7.4-4.2.5-1 .1-2.1.3-3.1.4-1 .1-2.1.3-3.2.4l-2.1.3c-1.8.2-3.7.4-5.5.7-.7.1-1.5.2-2.2.2-1.1.1-2.2.2-3.3.4-1.5.2-3 .3-4.4.5-.4 0-.7.1-1.1.1-.7.1-1.4.1-2.2.2-.4 0-.7.1-1.1.1h-.1c-15.9 1.3-29.4 1.4-30.5-2.3-1-3.4 8.6-8.9 12-10.8.3-.2.5-.3.7-.4 1.5-.8 2.9-1.5 4.3-2.1 10-4.4 18.2-4.4 25.3-5.4 1.1-.2 2.2-.3 3.2-.5 1.9-.4 3.8-.9 5.5-1.8.4-.2.7-.4 1.1-.6.2-.1.5-.3.7-.4.5-.3.9-.6 1.4-.9.2-.1.4-.3.5-.4.3-.3.7-.6 1-.9.3-.3.7-.6 1-1 4.4-4.5 6.3-10.4 8.1-16.2.1-.5.3-.9.4-1.4.3-.9.5-1.8.7-2.7.1-.5.2-.9.3-1.4 0-.1.1-.3.1-.4 0-.1.1-.3.1-.4.1-.3.1-.5.2-.8.1-.3.1-.5.2-.8.1-.8.3-1.5.3-2.2l.3-2.7c.1-.6.1-1.2.1-1.8v-1.3c0-1.1.1-2.1.1-3.1 2 .6 4 1.2 6.2 1.7 1.1.3 2.2.5 3.4.8 1.1.2 2.3.5 3.5.7.8.2 1.6.3 2.4.4l2.1.3c.5.1 1 .1 1.4.2.5.1 1.1.1 1.6.2 1 .1 2.1.2 3.1.3.5.1 1 .1 1.5.1.6.1 1.1.1 1.6.1.3 0 .7 0 1 .1s.6 0 1 .1h.1c.9.1 1.6.1 2.2.1zm156.9-5.2c-.2 12.4-.3 24.7-.5 37.1-.1 2-1.5 3.7-3.4 4.1-2.9.6-7.7 1.6-13.4 2.8-7.8 1.6-21.7 4.7-35.3 7.3-19 3.6-37.6 6-39.2 1.6-1.3-3.5 9.2-10.6 11.6-12.2 17.9-12 31.2-5.4 41.9-17.2 4.6-5 6.4-10.9 7.3-13.5.4-1.3.7-2.6 1-3.9.5-2.1.7-4.2.8-6.1.3-5.4-.4-9.9-1-12.5 3.9.9 8.3 1.7 13 2.2 6.3.7 12.1.8 17.2.7v9.6z"/><path class="st6" d="M721.9 1094.6c-.1 1.1-.2 2.2-.3 3.4l-3.9 43.2c-.2 2-1.8 3.6-3.8 3.8-.4.1-.7.1-1.1.2-.2 0-.4 0-.6.1-.3 0-.6.1-.9.1-.2 0-.5.1-.8.1-.4 0-.7.1-1.1.1-.8.1-1.8.2-2.7.3-.3 0-.7.1-1 .1-.5.1-.9.1-1.4.2-.3 0-.7.1-1 .1-.7.1-1.4.2-2 .3h-.1c-.4 0-.7.1-1.1.1-.9.1-1.8.2-2.8.4-.3 0-.7.1-1 .1-.3 0-.6.1-.9.1-.6.1-1.2.1-1.8.2-.4 0-.7.1-1.1.1-1 .1-2 .3-3 .4-.5.1-1.1.1-1.6.2s-1.1.1-1.7.2c-1.3.2-2.8.4-4.2.6-1 .1-2.1.3-3.1.4-1 .1-2.1.3-3.2.4l-2.1.3c-1.8.2-3.7.4-5.5.7-.7.1-1.5.2-2.2.2-1.1.1-2.2.2-3.3.4-1.5.2-3 .3-4.4.5-.4 0-.7.1-1.1.1-.7.1-1.4.1-2.2.2-.4 0-.7.1-1.1.1h-.1c-15.9 1.3-29.4 1.4-30.5-2.3-1-3.4 8.6-8.9 12-10.8.3-.2.5-.3.7-.4 1.5-.8 2.9-1.5 4.3-2.1 10-4.4 18.2-4.4 25.3-5.4 1.1-.2 2.2-.3 3.2-.5 1.9-.4 3.8-.9 5.5-1.8.4-.2.7-.4 1.1-.6.2-.1.5-.3.7-.4.5-.3.9-.6 1.4-.9.2-.1.4-.3.5-.4.3-.3.7-.6 1-.9.3-.3.7-.6 1-1 4.4-4.5 6.3-10.4 8.1-16.2.1-.5.3-.9.4-1.4.3-.9.5-1.8.7-2.7.1-.5.2-.9.3-1.4 0-.1.1-.3.1-.4 0-.1.1-.3.1-.4.1-.3.1-.6.2-.8.1-.3.1-.5.2-.8.1-.8.3-1.5.3-2.2l.3-2.7c.1-.6.1-1.2.1-1.8v-1.3c0-1.1.1-2.1.1-3.1 2 .6 4 1.2 6.2 1.7 1.1.3 2.2.5 3.4.8 1.1.2 2.3.5 3.5.7.8.2 1.6.3 2.4.4l2.1.3c.5.1 1 .2 1.4.2.5.1 1.1.1 1.6.2 1 .1 2.1.2 3.1.3.5.1 1 .1 1.5.1.6.1 1.1.1 1.6.1.3 0 .7 0 1 .1s.6 0 1 .1h2.3z"/><path d="M699.7 1109.6c-.3.3-.7.5-1.2.5-.4 0-.8-.2-1.1-.5l-7.5-7.5c.1-.3.1-.5.2-.8.1-.3.1-.5.2-.8.1-.8.3-1.5.3-2.2l9.2 9.1c.5.5.5 1.6-.1 2.2zm3.2 26.4c-.3 0-.5-.1-.8-.2-.8-.4-1.1-1.4-.7-2.2l7.2-13.4c.4-.8 1.4-1.1 2.2-.7.8.4 1.1 1.4.7 2.2l-7.2 13.4c-.3.6-.9.9-1.4.9zm-62.7.5l-6.9 13c-.3.6-.9.9-1.4.9-.3 0-.5-.1-.8-.2-.8-.4-1.1-1.4-.7-2.2l4.8-8.9c.3-.2.5-.3.7-.4 1.5-.9 2.9-1.6 4.3-2.2zm29.1 5.4c0 .9-.7 1.7-1.5 1.7h-.1c-.9 0-1.6-.7-1.6-1.5l-.5-11c1.1-.2 2.2-.3 3.2-.5l.5 11.3zm20.1 6.2c-.5.1-1.1.1-1.6.2s-1.1.1-1.7.2l-2.1-7.6c-.2-.9.3-1.8 1.1-2s1.8.3 2 1.1l2.3 8.1zm-32.5 3.8c-.7.1-1.4.1-2.2.2-.4 0-.7.1-1.1.1h-.1l-.8-3c-.2-.9.3-1.8 1.1-2 .9-.2 1.8.3 2 1.2l1.1 3.5zm65-57.3c-.1 1.1-.2 2.2-.3 3.4l-1.8 3.4c-.3.6-.9.9-1.4.9-.3 0-.5-.1-.8-.2-.8-.4-1.1-1.4-.7-2.2l2.9-5.4h.1c.7.1 1.4.1 2 .1zm142.9 24.4c-.4 0-.8-.2-1.1-.5l-10.8-10.7c-.6-.6-.6-1.7 0-2.3.6-.6 1.7-.6 2.3 0l10.8 10.7c.6.6.6 1.7 0 2.3-.3.3-.7.5-1.2.5zm-51.1 12.9l-6.3 11.8c-1.3.2-2.6.3-3.9.4 0-.1.1-.2.1-.3l7.2-13.4c.4-.8 1.4-1.1 2.2-.7.8.5 1.1 1.4.7 2.2zm65-35.2c0 2.4-.1 4.7-.1 7.1l-.8 1.5c-.3.6-.9.9-1.4.9-.3 0-.5-.1-.8-.2-.8-.4-1.1-1.4-.7-2.2l3.8-7.1zm-42.5 33.2c-.1 0-.3.1-.4.1-.7 0-1.4-.5-1.6-1.2l-2.7-9.8c1-.4 2-.9 3-1.4l2.8 10.3c.3.9-.2 1.8-1.1 2zm22 4.2c-1 .2-2.1.4-3.2.7l-1.2-4.4c-.2-.9.3-1.8 1.2-2 .9-.2 1.8.3 2 1.1l1.2 4.6zm9.3-54.4l-5.6 10.5c-.3.6-.9.9-1.4.9-.3 0-.5-.1-.8-.2-.8-.4-1.1-1.4-.7-2.2l4.9-9.3c1.3.1 2.5.2 3.6.3z" fill="#bacfda"/><path class="st6" d="M878.8 1089.4c0 2.4-.1 4.8-.1 7.2 0 2.4-.1 4.7-.1 7.1l-.3 22.8c-.1 2-1.5 3.7-3.3 4.1-2.9.6-7.7 1.6-13.5 2.8-1 .2-2.1.4-3.3.7-1 .2-2.1.4-3.2.7-12.8 2.7-32.7 7.1-47.6 9-1.3.2-2.6.3-3.9.4-9.1.9-15.7.7-16.6-1.9-1.3-3.6 9.2-10.6 11.6-12.2 13.3-8.9 24-7.6 33-11.1 1-.4 2-.9 3-1.4 2-1.1 4-2.6 5.9-4.7 4.6-5 6.4-10.9 7.3-13.5 1.1-3.5 1.7-6.9 1.8-10 .3-5.4-.4-9.9-1-12.5 3.9.9 8.3 1.7 13 2.2.8.1 1.7.2 2.5.2 1.2.1 2.4.2 3.5.3 4 .2 7.7.3 11.1.2l.2 9.6z"/><path d="M721.9 1094.6l-4.2 46.5c-.2 2-1.8 3.6-3.8 3.8-1.4.2-3.1.4-5.2.7 4.6-12.3 2.9-37.2 1.3-52.1 4.3.7 8.3 1 11.9 1.1zm156.9-5.2c-.2 12.4-.3 24.7-.5 37.1-.1 2-1.5 3.7-3.4 4.1-2.9.6-7.7 1.6-13.4 2.8-7.8 1.6-21.7 4.7-35.3 7.3 12.5-5.9 25.1-12 30.6-15.4 12.8-7.9 14.7-13.1 13.1-22.6-1.2-6.9-13.9-7.2-21.2-7.1.5-2.1.7-4.2.8-6.1.3-5.4-.4-9.9-1-12.5 3.9.9 8.3 1.7 13 2.2 6.3.7 12.1.8 17.2.7l.1 9.5z" opacity=".14" fill="#0b1d36"/></g><g id="hand_back"><path class="st20" d="M865.5 436.2L843 493.8c6.7 12.4 13.4 21.7 18.3 28.1 9 11.5 14 15.4 15.9 24 1.4 6.8.1 13.2-5.7 26.7-4.9 11.3-12.6 26.9-24.8 44.6l20.2 19.6c20.7-22.8 31.4-44.7 37-59 7-17.8 12.4-31.9 9.2-49-2.9-15-10-20.2-22.9-41.3-7.1-11.4-16.4-28.4-24.7-51.3z"/><linearGradient id="SVGID_10_" gradientUnits="userSpaceOnUse" x1="843.008" y1="536.537" x2="914" y2="536.537"><stop offset="0" stop-color="#002544"/><stop offset=".994" stop-color="#640042"/></linearGradient><path d="M865.5 436.2L843 493.8c6.7 12.4 13.4 21.7 18.3 28.1 9 11.5 14 15.4 15.9 24 1.4 6.8.1 13.2-5.7 26.7-4.9 11.3-12.6 26.9-24.8 44.6l20.2 19.6c20.7-22.8 31.4-44.7 37-59 7-17.8 12.4-31.9 9.2-49-2.9-15-10-20.2-22.9-41.3-7.1-11.4-16.4-28.4-24.7-51.3z" opacity=".31" fill="url(#SVGID_10_)"/></g><path id="hair_back" class="st22" d="M730.3 400.2c-1 6.4-2.9 16.3-6.9 28-8.5 25.1-16.8 30.6-13.8 40.1 5.3 16.9 38.4 19.9 42.9 20.3 8.7.8 17.1 1.5 25.4-3.3 14.3-8.4 17-27.1 18-34.5 5.1-36.5-23-66.2-29-72.4l-36.6 21.8z"/><g id="neck"><linearGradient id="SVGID_11_" gradientUnits="userSpaceOnUse" x1="753.594" y1="387.46" x2="817.22" y2="387.46" gradientTransform="rotate(7.342 666.887 368.653)"><stop offset="0" stop-color="#efddcb"/><stop offset=".331" stop-color="#f1bdaf"/><stop offset=".628" stop-color="#f2a89c"/><stop offset=".821" stop-color="#f2a095"/></linearGradient><path fill="url(#SVGID_11_)" d="M811.5 422.5l-41.9 19.9-7.4-20.4-5.6-15.4-5.3-14.7 30.8-31z"/><path d="M785.8 372.8c-3.6 23.3-16 40.6-23.6 49.2l-5.6-15.5 29.2-33.7z" opacity=".09" fill="#365588"/></g><g id="body"><path d="M883.4 643.3c-.6 7.9-1.6 16.5-3.4 25.4-.5 2.3-1 4.6-1.5 6.8-34-1.8-68-3.5-102-5.3-1.8-9.1-3.5-17.5-5.2-25.4-1.6-7.4-3.2-14.3-4.7-20.6-1.6-6.7-3.2-12.9-4.8-18.6-7.7-28.2-14.5-44.8-20.2-55.1-2.4-4.3-7.9-13.4-8.9-26.5-.9-11.9 3.1-11.9 8.3-41.9 1.8-10.1 4.7-19.9 6-30.1.1-.8.6-4 2-7.9.2-.6.5-1.1.8-1.9 8.6-18.1 30.7-28.3 48.8-30.5 23.1-2.8 49.5 7.4 62.7 26.8.1.1.2.3.3.4 2.9 4.4 4.6 8.5 5.5 12.5 3.2 15.1 2.3 26.7.4 38.7-1.9 12-5 24.6-6.1 41.8-2.4 36.9 8.7 71 17.6 98.1 1.7 5.7 3.3 10.3 4.4 13.3z" fill="#640042"/><linearGradient id="SVGID_12_" gradientUnits="userSpaceOnUse" x1="761.792" y1="532.352" x2="869.136" y2="532.352"><stop offset="0" stop-color="#002544"/><stop offset=".62" stop-color="#042444" stop-opacity=".5"/><stop offset="1" stop-color="#640042" stop-opacity=".2"/></linearGradient><path d="M835.2 494.3c-14.4 18 26 57.3 15.8 90.5-8.8 28.5-53.1 46.8-84.4 39.6-1.6-6.7-3.2-12.9-4.8-18.6 18.8-2.1 49.2-2.8 62.4-19.1 11.6-14.3 13.2-44.4-23.6-111.6l60.6-36.3c.1.1.2.3.3.4 2.9 4.4 4.6 8.5 5.5 12.5 3.2 15.1 2.3 26.7.4 38.7-2.4-1.6-10.9-6.7-20.3-4.2.1-.1-6.8 1.7-11.9 8.1z" opacity=".07" fill="url(#SVGID_12_)"/></g><g id="smartphone"><linearGradient id="SVGID_13_" gradientUnits="userSpaceOnUse" x1="626.857" y1="515.49" x2="697.701" y2="515.49"><stop offset="0" stop-color="#002544"/><stop offset=".917" stop-color="#271c41"/></linearGradient><path d="M696.2 540.3l-14.7 14.5c-2.8 2.7-8.1 1.1-11.7-3.6l-39.9-51.4c-3.7-4.7-4-10.4-.8-12.6l17-11.6c2.9-2 8 0 11.4 4.4l37.2 47.8c3.3 4.5 4 10 1.5 12.5z" opacity=".45" fill="url(#SVGID_13_)"/><path d="M694.6 527.9l-37.2-47.8c-3.4-4.4-8.5-6.4-11.4-4.4l-17 11.6c-1.2.8-1.9 2.1-2.1 3.6-.1.6-.1 1.3 0 2v1.9c-.4 2.5.5 5.7 2.7 8.5l38.1 49c3.2 4.1 7.8 5.7 10.7 3.8 1.2-.1 2.3-.5 3.2-1.3l14.7-14.5c2.5-2.5 1.7-8-1.7-12.4z" fill="#302c34"/><linearGradient id="SVGID_14_" gradientUnits="userSpaceOnUse" x1="626.861" y1="515.49" x2="697.706" y2="515.49"><stop offset="0" stop-color="#002544"/><stop offset=".917" stop-color="#271c41"/></linearGradient><path d="M696.2 540.3l-14.7 14.5c-2.8 2.7-8.1 1.1-11.7-3.6l-39.9-51.4c-3.7-4.7-4-10.4-.8-12.6l17-11.6c2.9-2 8 0 11.4 4.4l37.2 47.8c3.3 4.5 4 10 1.5 12.5z" opacity=".45" fill="url(#SVGID_14_)"/><linearGradient id="SVGID_15_" gradientUnits="userSpaceOnUse" x1="633.259" y1="515.212" x2="693.743" y2="515.212"><stop offset="0" stop-color="#d3e0df"/><stop offset=".664" stop-color="#f1f0e2"/></linearGradient><path d="M693.7 530.9c-6.9 6-13.7 11.9-20.6 17.9-2.8-3.2-9.2-11.1-16.1-19.8-.9-1.2-1.8-2.3-2.8-3.5-.8-1-1.5-1.9-2.3-2.9-2.5-3.1-4.9-6.2-7.2-9.1-5.1-6.6-9.5-12.3-11.6-15.1l22.8-16.8c.2.3.4.5.6.8 1.8 2.4 4 5.1 6.3 8.1.6.8 1.2 1.5 1.8 2.3.9 1.2 1.8 2.4 2.8 3.6 12.2 15.6 26 33.7 26.3 34.5z" fill="url(#SVGID_15_)"/><path d="M677.3 534.1c-.4 0-.8-.1-1.1-.3l-21.6-13.4c-1-.6-1.3-2-.7-3 .6-1 2-1.3 3-.7l15.3 9.5-15.9-33.5c-.5-1.1-.1-2.4 1-2.9s2.4-.1 2.9 1l19.1 40.2c.4.9.2 1.9-.5 2.6-.5.3-1 .5-1.5.5z" opacity=".67" fill="#336859"/><path d="M663 490.5c-3.7 10.7-7.4 21.4-11 32-2.5-3.1-4.9-6.2-7.2-9.1l11.9-31.1c1.9 2.5 4 5.3 6.3 8.2zm4.6 5.9L657.1 529c-.9-1.2-1.8-2.3-2.8-3.5l10.5-32.6c.9 1.1 1.8 2.3 2.8 3.5z" opacity=".26" fill="#e6e3f4"/></g><g id="legs"><g id="leg_back"><path class="st11" d="M881.4 1081.3h-2.7c-1.8-116.6-4.3-157.3-6.6-166.6-.4-1.6-3.6-13.8-5.4-30.7-.1-1.4-.3-3-.5-4.8-3.9-50.2 24.6-160.9 24.1-188.1-.4-19.1-3.5-35.4-6.9-47.8-32.4 9.6-64.7 19.2-97.1 28.8-1.9 103.3 8.8 173.8 19.4 220 2.6 11.2 8.2 34 17 73 10.9 48 19.3 88 25.1 116.2h-.3c-2.2 0-4 1.8-4 4.1s1.8 4.1 4 4.1h33.9c2.2 0 4-1.8 4-4.1s-1.8-4.1-4-4.1z"/><linearGradient id="SVGID_16_" gradientUnits="userSpaceOnUse" x1="786.127" y1="866.397" x2="890.316" y2="866.397"><stop offset=".006" stop-color="#640042"/><stop offset="1" stop-color="#002544"/></linearGradient><path d="M881.4 1081.3h-2.7c-1.8-116.6-4.3-157.3-6.6-166.6-.4-1.6-3.6-13.8-5.4-30.7-.1-1.4-.3-3-.5-4.8-3.9-50.2 24.6-160.9 24.1-188.1-.4-19.1-3.5-35.4-6.9-47.8-32.4 9.6-64.7 19.2-97.1 28.8-1.9 103.3 8.8 173.8 19.4 220 2.6 11.2 8.2 34 17 73 10.9 48 19.3 88 25.1 116.2h-.3c-2.2 0-4 1.8-4 4.1s1.8 4.1 4 4.1h33.9c2.2 0 4-1.8 4-4.1s-1.8-4.1-4-4.1z" opacity=".12" fill="url(#SVGID_16_)"/></g><g id="leg_front"><path d="M883.4 643.3c-.5 6.4-1.2 12.5-2.1 18.2-.4 2.3-.8 4.6-1.2 6.8-.5 2.5-1 4.9-1.6 7.2 0 .1 0 .2-.1.3-4.6 19.6-11.5 34.3-17.5 45-22.5 39.4-68.4 81.8-100.2 114.4-15.9 16.3-28.3 30.2-32.4 39.9-.6 1.5-1.1 2.9-1.3 4.2-1 5.7-1.3 11.5-1.3 11.5.9 9.3 1.7 18.7 2.4 28.3 4.4 64.6 1.1 124.7-6.5 179.2h-1.2l-6.9.3c-7.8.3-15.5.6-23.3.9-1.8-28.4-5.2-51.3-7.8-66.6-5.8-33.5-13.1-60.3-18.4-84.8-7-32.8-10.3-61.7-1.4-97.7 3-12.3 5.3-15.8 60.7-117.3 5.6-10.2 10.9-19.9 15.8-29 12.6-23 22.9-42 30.2-55.3.7-1.3 1.4-2.5 2-3.7l.3-.6c34.4-.3 68.8-.7 103.1-1 2.9-.1 5.8-.1 8.7-.2z" fill="#39215a"/><path class="st11" d="M721.9 1099.6h-34.5c-2.1 0-3.7-1.7-3.7-3.7v-.7c0-2.1 1.7-3.7 3.7-3.7h34.5c2.1 0 3.7 1.7 3.7 3.7v.7c0 2-1.7 3.7-3.7 3.7z"/><path d="M883.4 643.3c-.5 6-1.2 12.1-2.1 18.2-.4 2.3-.8 4.6-1.2 6.8-.5 2.5-1 4.9-1.6 7.2 0 .1 0 .2-.1.3-.9 3.8-6.8 24.8-17.5 45-22.5 39.4-68.4 81.8-100.2 114.4-15.9 16.3-28.3 30.2-32.4 39.9-.6 1.5-1.1 2.9-1.3 4.2-1 5.7-1.3 11.5-1.3 11.5.9 9.3 1.7 18.7 2.4 28.3 4.4 64.6 1.1 124.7-6.5 179.2h-1.2c-8-12.1-7.1-48.4-9.5-111.1-3.5-92.8-8.4-89.2-3.4-105.9 12.3-41.1 36-42.9 93.2-112.7 32.4-39.5 72.5-97.2 61.9-109.2-3.9-4.4-12.1.7-30.8 2-26 1.7-47.8-5.8-62.6-12.8.7-1.2 1.4-2.5 2-3.7l.3-.6c34.4-.3 68.8-.7 103.1-1 3 .1 5.9.1 8.8 0z" opacity=".07" fill="#0b1d36"/><linearGradient id="SVGID_17_" gradientUnits="userSpaceOnUse" x1="657.208" y1="826.056" x2="739.138" y2="826.056"><stop offset="0" stop-color="#fff" stop-opacity=".5"/><stop offset=".836" stop-color="#f07125"/></linearGradient><path d="M739.1 704c-9 34.1-27.3 92.1-56 134-19 27.7-21.9 70.6-19.1 110.1-7-32.8-10.3-61.7-1.4-97.7 3-12.3 5.3-15.8 60.7-117.3 5.6-10.3 10.9-20 15.8-29.1z" opacity=".04" fill="url(#SVGID_17_)"/></g></g><g id="hand_front"><path class="st20" d="M839.2 587.9c-3.2 5-7.3 7.7-12.1 11-.1.1-.2.1-.3.2 0 0-.1 0-.1.1-4.6 3.1-22.1 14-59.2 10.8-28.5-2.5-53.4-12-72.3-21.5-9.2-4.6-16.9-9.3-22.8-13.2 3.6-5.9 7.1-11.8 10.7-17.8 37.1 16.9 67.2 17.2 83.8 15.9 11.4-.9 22-1.8 27.8-5.8 1.6-1.2 2.9-2.6 3.6-4.3 6.1-14.1-28.5-29.4-46.6-75.8-4.8-12.4-14.4-37.6-2.6-54 2.2-3.1 6.8-8.1 13.2-12 4.4-2.6 9.7-4.7 15.6-5.1.3 0 3.4-.2 5.6.1 13.9 2.1 19.9 28.3 30.5 64.1 2.1 7.2 4.4 14.7 7 22.6 1.5 4.4 2.9 8.6 4.3 12.6 13.8 38.6 24.2 56.4 13.9 72.1z"/><linearGradient id="SVGID_18_" gradientUnits="userSpaceOnUse" x1="636.114" y1="543.591" x2="683.105" y2="543.591"><stop offset=".001" stop-color="#e4c9c2"/><stop offset=".769" stop-color="#fdb2a4"/></linearGradient><path d="M683.1 557.5c-1.6 3.4-3.5 7.1-5.9 10.9-1.6 2.5-3.2 4.8-4.8 6.8-3-2.4-5.1-4.1-6.4-5.2-1.3-1-1.9-1.5-2-1.6l-.5-.5-.1-.1-.1-.1c-12-11.2-18.9-24.9-18.9-24.9-6.2-12.5-7.9-24-8.4-31.2 1.8 2.2 4.6 5.5 8 9.8.3.4.7.8.9 1.2 2.1 2.7 3.6 4.7 6.3 8.2 3.2 4.2 6.4 8.3 9.7 12.5.6-1.8 1.4-4.5 1.5-8.1.1-2.2-.2-4.1-.6-7.9-.6-4.9-1.5-10.5.2-11.2.1 0 .2-.1.2-.1.8 0 1.9.2 2.9.9 2.4 1.8 2.3 5.7 2.3 7.4 0 .1 0 7.4 4.6 19.1 1.3 3.3 3.6 7.5 8.5 11.7.8 1 1.7 1.7 2.6 2.4z" fill="url(#SVGID_18_)"/><path d="M683.1 557.5c-1.6 3.4-3.5 7.1-5.9 10.9-1.6 2.5-3.2 4.8-4.8 6.8-3-2.4-5.1-4.1-6.4-5.2l14.2-14.5.3-.2c.8.8 1.7 1.5 2.6 2.2zm-22.1-14c-9.5-.5-13.9-11.2-15.9-20.6 2.1 2.7 3.6 4.7 6.3 8.2 3.1 4.1 6.4 8.3 9.6 12.4z" opacity=".16" fill="#365588"/><linearGradient id="SVGID_19_" gradientUnits="userSpaceOnUse" x1="695.23" y1="541.831" x2="843.386" y2="541.831"><stop offset="0" stop-color="#002544"/><stop offset=".62" stop-color="#042444" stop-opacity=".5"/><stop offset="1" stop-color="#640042" stop-opacity=".2"/></linearGradient><path d="M839.2 587.9c-3.9 5.1-10.4 9.7-12.1 11-.1.1-.2.2-.3.2 0 0-.1 0-.1.1-4.6 3.1-22.1 14-59.2 10.8-28.5-2.5-53.4-12-72.3-21.5 33.1 8.1 111.9 25 125.8-1 3.5-6.6 1-17.5-4-39.3-9.6-41.4-24.7-65.5-16.3-73 1.2-1.1 3.5-2.4 8.2-1.9 1.8 2.5 3.5 4.9 5.2 7.4 2.1 7.2 4.4 14.7 7 22.6 1.5 4.4 2.9 8.6 4.3 12.6 13.7 38.5 24.1 56.3 13.8 72z" opacity=".07" fill="url(#SVGID_19_)"/><linearGradient id="SVGID_20_" gradientUnits="userSpaceOnUse" x1="743.453" y1="494.868" x2="806.215" y2="494.868"><stop offset="0" stop-color="#fff" stop-opacity=".5"/><stop offset=".836" stop-color="#f07125"/></linearGradient><path d="M797.2 568.2c-.7 0-1.5-.3-2.5-.7 1.6-1.2 2.9-2.6 3.6-4.3 6.1-14.1-28.5-29.4-46.6-75.8-4.8-12.4-14.4-37.6-2.6-54 2.2-3.1 6.8-8.1 13.2-12-3.2 14.3-9.3 55.7 17.9 94.4 33.6 47.8 29.3 53 17 52.4z" opacity=".04" fill="url(#SVGID_20_)"/></g><path id="hair" class="st22" d="M779.6 340.7c2.8 10.5 5.9 27.2 3.4 47-3.8 30.6-17.5 40.6-13.7 63.6 2.3 13.6 11 33.9 26.6 38.8 15 4.8 24.1-8.4 49.1-4.2 11.1 1.9 13.8 5.2 19.4 3.1 12.4-4.6 17.4-27.8 16.2-45.8-2.2-31.7-22.8-35.6-45.3-81.4-17.6-35.9-13.3-50.5-30.1-62.4-18.2-12.8-42.9-9.5-61.5-4.3 12 15.3 24 30.4 35.9 45.6z"/><g id="head_general"><g id="head"><linearGradient id="SVGID_21_" gradientUnits="userSpaceOnUse" x1="701.539" y1="347.59" x2="796.973" y2="347.59" gradientTransform="rotate(7.342 666.887 368.653)"><stop offset="0" stop-color="#efddcb"/><stop offset=".331" stop-color="#f1bdaf"/><stop offset=".628" stop-color="#f2a89c"/><stop offset=".821" stop-color="#f2a095"/></linearGradient><path d="M783.3 366.4c.4 2.2.9 5.7.3 9.9-.6 4.6-2.1 8-3.3 10.2-7 14-13.4 26.6-24.1 28-5.6.7-10.1-1.9-14.6-4.5-10.6-6.1-15.5-15.6-17.4-19.9-7.4 3.3-10.3 2.9-11.4 1.7-1.8-2 .8-6.3 2.8-16.9.7-3.7 1.1-6.9 1.4-9.2-3.2-4.4-11.1-16.6-10.3-33.1.2-5 1.2-24.8 14.2-31.2 11-5.4 24.4 1.9 31.2 6.4 8.7 5.8 17.1 14.3 22.9 23.9l.6.9c1.5 2.6 2.8 5.2 4 8 5.8-3.2 13.3-1.7 17.5 3.7 1.4 1.8 2.2 3.8 2.6 5.9.9 4.9-.9 10.2-5.1 13.5-3.3 2.7-7.5 3.5-11.3 2.7z" fill="url(#SVGID_21_)"/><linearGradient id="SVGID_22_" gradientUnits="userSpaceOnUse" x1="760.705" y1="328.246" x2="792.948" y2="328.246" gradientTransform="rotate(7.342 666.887 368.653)"><stop offset="0" stop-color="#fff" stop-opacity=".5"/><stop offset=".836" stop-color="#f07125"/></linearGradient><path d="M797.1 344.5c-7.3 1.4-28.9 5.4-29.6 5.6l-2.3-10.3 10.5-7c1.5 2.6 2.8 5.2 4 8 5.8-3.2 13.2-1.8 17.4 3.7z" opacity=".22" fill="url(#SVGID_22_)"/></g><path id="smile" d="M736.8 401.6c-.3 0-.6-.3-.6-.6 0-.4.2-.7.6-.7.3 0 7.1-.6 9.9-6.1 1.2-2.3 1.2-4.5 1.1-6 0-.4.2-.7.6-.7.4 0 .7.2.7.6.2 1.7.1 4.2-1.2 6.8-3.2 5.9-10.3 6.6-11.1 6.7z"/><ellipse id="eye" cx="727.8" cy="363" rx="3" ry="3"/><path id="brow" transform="rotate(7.372 725.212 347.595)" class="st22" d="M715 346.1h20.2v2.9H715z"/></g><path id="forelock" class="st22" d="M706.8 332.7c14.2 18.5 35.3 27.1 53 21.8 9.7-2.9 16.2-9.3 19.8-13.8.1-4.7-.4-12-3.3-20.2-1.9-5.2-8.2-22.3-25.6-28.9-2.7-1-20.4-7.7-34.1 3.2-10.5 8.3-14.5 23.5-9.8 37.9z"/></g></g></g></svg>