<svg xmlns="http://www.w3.org/2000/svg" width="1200" height="1200"><style>.st0{fill:#ebdede}.st2{fill:#fff}.st3{fill:none}.st5{fill:#bdd3de}.st6{fill:#eeedee}.st7{opacity:.42;fill:#bdd3de}.st8{opacity:.5;fill:#fff}.st12{opacity:.12;fill:#253041}.st14{fill:#e2c8c0}.st15{fill:#5a142a}.st16{opacity:8.000000e-02;fill:#19233d}.st18{opacity:6.000000e-02;fill:#253041}.st20{fill:#791d2c}.st22{fill:#e6e3f4}.st24{fill:#19233d}.st27{fill:#000105}.st30{fill:#0d2a28}.st31{fill:#336859}.st38{fill:#cd907f}.st41,.st45{opacity:.51;fill:#19233d}.st45{opacity:.15}</style><g id="background"><g id="general"><path id="figure2" class="st0" d="M1168.9 193.2c.9 2.7 13.8 45.7-8.8 84.8-47.6 82.4-196.5 51-352.8 68.8C505.4 381.3 365 578 333.6 543.6 292 498 500.8 109.8 816.9 73.1c125.4-14.5 320.2 20.3 352 120.1z"/><path id="figure3" class="st0" d="M1120.1 451.3c42.3 53.5 35.7 142.7-.7 195-17.1 24.6-54 59.8-274.6 77.9-241.2 19.8-339.4-10.6-415.5 63.5-41.6 40.4-50.5 86.6-67.9 82.7-28.1-6.3-48.8-136.8-3.4-241.6 81.3-187.6 345.5-226 476.9-245 30.1-4.4 118.7-15.3 213.8 21.9 47.9 18.7 64.3 36.7 71.4 45.6z"/><path class="st0" d="M1166 903.9c-.2 5.8-.8 15.4-2.4 27.4-.4 2.5-.8 5.2-1.2 8-5.7 35-20.2 85.9-57.4 128.6-3.1 3.6-6.4 7-9.8 10.5-2.8 2.8-5.7 5.6-8.8 8.3-.7.6-5.7 5.4-11.5 9.5-15.1 10.7-39.5 21.7-88.7 27.7-2.6.3-5.3.6-8 .9-32 3.4-73.7 4.8-128.8 2.9-2.6-.1-5.3-.2-8-.3-12-.5-24.5-1.1-37.8-1.8-20.4-1.2-40.7-2.1-60.8-2.8l-8.1-.3c-52-1.7-102.4-2-148.2-1.5-2.7 0-5.4.1-8 .1-44.1.6-83.7 2-116 3.6-2.7.1-5.4.3-8 .4-33.6 1.8-58.5 3.8-71.2 5.4-14.7 1.8-30.2 3.9-46 5.9-2.6.3-5.3.7-8 1-47.3 5.8-96 9.6-131.3-.9-2.9-.9-5.8-1.8-8.5-2.9-12.3-4.8-22.6-11.6-30.1-21.2-3.5-4.4-15.2-19.2-11-32.9 3.4-11.2 15.3-14.7 31-17.8 2.5-.5 5.2-1 7.9-1.5 20.1-3.7 44.6-8.4 65.5-26.5 8.5-7.3 13.7-14.5 17.4-21.7 1.3-2.6 2.5-5.2 3.5-7.8 6.9-17.5 8.9-35.6 32.3-56.5 3.5-3.2 6.9-5.8 10.2-8.1 6.5-4.5 12.7-7.5 18.8-10 13.8-5.5 27.9-8.4 47.9-20.4 41.8-25.1 56-58.1 72.6-82.9 2-3 4-5.9 6.1-8.6 1.5-2 3.1-3.9 4.8-5.8C492.9 781.8 530 775 584 773.6c2.6-.1 5.3-.1 8-.2 31.3-.5 68.1.4 111.6-.5 2.7-.1 5.3-.1 8-.2 37.5-.9 79.9-3.3 127.9-9 .2 0 .5 0 .7-.1 2.5-.3 4.9-.6 7.3-.9 53.3-6.7 95.6-15.3 130.2-22.6 2.7-.6 5.4-1.1 8-1.7 65.2-13.7 101.7-21.1 133.6 3.4 1.4 1.1 2.8 2.2 4.2 3.4 1.1 1 2.3 2 3.3 3 27.2 25.9 36.3 64.7 39 99.7.2 2.7.4 5.4.5 8 .9 18.4.2 35.2-.3 48z"/><path class="st2" d="M198 1136.5c-2.9-.9-5.8-1.8-8.5-2.9l-10.1-72c2.5-.5 5.2-1 7.9-1.5l10.7 76.4zM1119.2 854l47.1 2c-.1-2.7-.3-5.3-.5-8l-46-1.9 7-97.8c-1.1-1-2.2-2.1-3.3-3-1.4-1.2-2.8-2.4-4.2-3.4l-7.4 103.9-126-5.3-.1-102c-2.6.6-5.3 1.1-8 1.7l.1 100-130-5.4-.4-72c-2.4.3-4.8.6-7.3.9-.2 0-.5.1-.7.1l.4 70.7-123.2-5.2-5-56.5c-2.7.1-5.4.1-8 .2l5 56-117.5-5 .8-50.5c-2.7 0-5.4.1-8 .2l-.8 50-117.2-4.9.1-6.8c-1.6 1.8-3.2 3.8-4.8 5.8-2.1 2.7-4.1 5.6-6.1 8.6l2.7.1-1.2 103.4-122-.2c-6.2 2.5-12.3 5.4-18.8 10l4.6 68.2-47-3.6c-1 2.6-2.1 5.2-3.5 7.8l51 3.9 8.2 121.5c2.7-.3 5.3-.7 8-1l-8.1-119.9 126.5 9.7-1.2 98.9c2.6-.1 5.3-.3 8-.4l1.1-97.9 116.3 8.9-1.4 85.4c2.7 0 5.3-.1 8-.1l1.3-84.7L728 1047l6.7 75.4 8.1.3-6.7-75 104.9 8 .4 71.7c2.7.1 5.4.2 8 .3l-.4-71.3 129.1 9.9.1 58.6c2.7-.3 5.4-.6 8-.9l-.1-57.1 109.3 8.4-.2 3.2c3.4-3.4 6.7-6.9 9.8-10.5l-1-.1 9.2-128.6 49.2.1c.4-2.8.8-5.5 1.2-8l-49.8-.1 5.4-77.3zm-663.5 164.1l-127.1-9.7-4.8-70.8 132.8.3-.9 80.2zm124.3 9.6l-116.3-8.9.9-80.9 116.8.2-1.4 89.6zm1.5-97.6l-116.8-.2 1.2-103.1 117.1 4.9-1.5 98.4zm258.4-87.7l.4 88.2-114.7-.2-8.3-93.1 122.6 5.1zM591.1 832l118.2 4.9 8.3 93.5-128.1-.3 1.6-98.1zm-3.1 196.3l1.4-90.2 128.9.3 8.9 100.6-139.2-10.7zm147.4 11.3l-9-101.2 114 .2.5 109-105.5-8zm112.5-196.9l129.9 5.4.1 82.8-129.6-.3-.4-87.9zm1 205.5l-.5-109.6 129.5.3.2 119.2-129.2-9.9zm247 18.9l-109.8-8.4-.2-119.8 119.2.2-9.2 128zm9.8-136l-119.8-.2-.1-82.4 125.4 5.2-5.5 77.4z" id="floor_lines" opacity=".5"/><path class="st3" d="M1166 903.9c-.2 5.8-.8 15.4-2.4 27.4-.4 2.5-.8 5.2-1.2 8-5.7 35-20.2 85.9-57.4 128.6-3.1 3.6-6.4 7-9.8 10.5-2.8 2.8-5.7 5.6-8.8 8.3-.7.6-5.7 5.4-11.5 9.5-15.1 10.7-39.5 21.7-88.7 27.7-2.6.3-5.3.6-8 .9-32 3.4-73.7 4.8-128.8 2.9-2.6-.1-5.3-.2-8-.3-12-.5-24.5-1.1-37.8-1.8-20.4-1.2-40.7-2.1-60.8-2.8l-8.1-.3c-52-1.7-102.4-2-148.2-1.5-2.7 0-5.4.1-8 .1-44.1.6-83.7 2-116 3.6-2.7.1-5.4.3-8 .4-33.6 1.8-58.5 3.8-71.2 5.4-14.7 1.8-30.2 3.9-46 5.9-2.6.3-5.3.7-8 1-47.3 5.8-96 9.6-131.3-.9-2.9-.9-5.8-1.8-8.5-2.9-12.3-4.8-22.6-11.6-30.1-21.2-3.5-4.4-15.2-19.2-11-32.9 3.4-11.2 15.3-14.7 31-17.8 2.5-.5 5.2-1 7.9-1.5 20.1-3.7 44.6-8.4 65.5-26.5 8.5-7.3 13.7-14.5 17.4-21.7 1.3-2.6 2.5-5.2 3.5-7.8 6.9-17.5 8.9-35.6 32.3-56.5 3.5-3.2 6.9-5.8 10.2-8.1 6.5-4.5 12.7-7.5 18.8-10 13.8-5.5 27.9-8.4 47.9-20.4 41.8-25.1 56-58.1 72.6-82.9 2-3 4-5.9 6.1-8.6 1.5-2 3.1-3.9 4.8-5.8C492.9 781.8 530 775 584 773.6c2.6-.1 5.3-.1 8-.2 31.3-.5 68.1.4 111.6-.5 2.7-.1 5.3-.1 8-.2 37.5-.9 79.9-3.3 127.9-9 .2 0 .5 0 .7-.1 2.5-.3 4.9-.6 7.3-.9 53.3-6.7 95.6-15.3 130.2-22.6 2.7-.6 5.4-1.1 8-1.7 65.2-13.7 101.7-21.1 133.6 3.4 1.4 1.1 2.8 2.2 4.2 3.4 1.1 1 2.3 2 3.3 3 27.2 25.9 36.3 64.7 39 99.7.2 2.7.4 5.4.5 8 .9 18.4.2 35.2-.3 48z"/><g opacity=".42"><path class="st2" d="M1028 416.5v230.1H553.8V453c1.8-.8 3.7-1.6 5.5-2.3 26.9-11.4 54.6-20.8 82.1-28.7 6.7-1.9 13.3-3.8 20-5.5H1028z"/><path class="st5" d="M1028 411H683.2c-7.2 1.7-14.5 3.6-21.9 5.5-6.6 1.7-13.3 3.6-20 5.5h381.1v219.1H559.3V450.7c-1.8.8-3.7 1.5-5.5 2.3-1.8.8-3.7 1.6-5.5 2.4v191.2c0 3 2.5 5.5 5.5 5.5H1028c3 0 5.5-2.5 5.5-5.5V416.5c0-3-2.5-5.5-5.5-5.5z"/></g><g id="stickers"><path transform="rotate(4.387 621.249 469.02) scale(1.00003)" class="st6" d="M595.1 442.9h52.2v52.2h-52.2z"/><path transform="rotate(7.036 695.627 469.153)" class="st0" d="M669.3 442.9h52.2v52.2h-52.2z"/><path class="st0" d="M740.6 442.9h52.2v52.2h-52.2z"/><path transform="matrix(.9959 -.08997 .08997 .9959 -46.73 58.242)" class="st6" d="M596.6 521.4h52.2v52.2h-52.2z"/><path class="st6" d="M670.8 528.1H723v52.2h-52.2z"/><path class="st0" d="M742.1 521.4h52.2v52.2h-52.2z"/><path transform="rotate(-11.285 840.732 473.616)" class="st6" d="M814.6 447.5h52.2v52.2h-52.2z"/></g><path class="st3" d="M1121.2 645.8c-17.1 24.6-54.1 59.8-274.6 77.9-241.2 19.8-339.4-10.6-415.5 63.5-41.6 40.4-50.5 86.6-67.9 82.7-28.1-6.3-48.8-136.8-3.4-241.6 36-83.2 108-137 188.5-172.9 1.8-.8 3.7-1.6 5.5-2.4 1.8-.8 3.7-1.6 5.5-2.3 26.9-11.4 54.6-20.8 82.1-28.7 6.7-1.9 13.3-3.8 20-5.5 7.3-1.9 14.6-3.8 21.9-5.5 57.7-13.8 112.1-21.7 153.4-27.7 30.1-4.4 118.7-15.3 213.8 21.9 47.9 18.8 64.3 36.8 71.4 45.8 42.2 53.3 35.7 142.6-.7 194.8z"/><path id="figure1" class="st0" d="M389.4 63c10 3.3 63.6 22.2 81.6 70 34.3 91-126.4 145.9-177.8 323.2-35 120.9 20.5 158.3-13.6 383.1C264.2 941 256.5 991.9 236.4 995c-70.6 11-335-519.3-138.7-787.1C154.6 130.5 284 28.4 389.4 63z"/><path class="st7" d="M181.9 306.6c-12.7 34.5 48.4-16.8 67.6 21.4 19.2 38.2-94.4 72.9-90.9 105.3s65.8-26.9 53.8 25.5c-7.3 31.8-47.6 74.9-78.2 103.8h28.5l-9.2 31.7-.4 1.2-2.1 7.3c2.3 4.8 4.9 10.3 7.7 16.4 5.5 12.1 11.9 26.6 18.5 43.2.1.2.2.4.2.5 1.8 4.6 3.6 9 5.4 13.3 2.6 6.4 5 12.5 7.3 18.3 3.5 8.9 6.7 17.1 9.7 24.9 14.8 39.2 21.8 64.7 19.5 86.9-.1 1.1-.3 2.3-.4 3.4-2.1 13.8-7.4 26.2-14.9 37.3-1.8 2.7-3.8 5.3-5.9 7.8-8.6 10.3-19.2 19.2-31 26.6-6.9 4.4-14.2 8.3-21.8 11.7-29.7-53.5-59.8-123.9-82.3-201.2-4.2-14.5-8.1-29.2-11.8-44-36.9-151.7-40.2-321.5 46.6-440 30.5-41.7 82.1-90.5 139.7-121.3 6.2 3.1 8.3 9.5 4.9 19.5-16.9 49.2-68.4 103.5-37.2 103.9 31.2.4 67.1-48 73.1.2 5.9 48.2-83.7 61.8-96.4 96.4z"/><path class="st8" d="M75.5 671.2c0 9-5.1 16.8-12.6 20.7-4.2-14.5-8.1-29.2-11.8-44h1c12.9-.1 23.4 10.4 23.4 23.3zm87.1-108.5l-9.2 31.7-.4 1.2c-6.5-4.1-10.8-11.4-10.8-19.7 0-4.9 1.5-9.5 4.1-13.2h16.3zm56.5 243.7c-.1 1.1-.3 2.3-.4 3.4-2.1 13.8-7.4 26.2-14.9 37.3-4.7-4.3-7.7-10.5-7.7-17.3 0-12.8 10.3-23.2 23-23.4z"/><circle class="st8" cx="130.4" cy="806.4" r="23.3"/><path class="st8" d="M199.7 719.6c-3.2 1.7-6.9 2.6-10.8 2.6-12.9 0-23.3-10.5-23.3-23.3 0-10.7 7.2-19.8 17.1-22.5 2.6 6.4 5 12.5 7.3 18.3 3.5 8.9 6.8 17.1 9.7 24.9z"/><path class="st3" d="M293.2 456.2c-35 120.9 20.5 158.2-13.6 383.1C264.2 941 256.5 991.9 236.5 995c-19.9 3.1-55.3-36.9-91.3-101.9-29.7-53.5-59.8-123.9-82.3-201.2-4.2-14.5-8.1-29.2-11.8-44-36.8-151.7-40.1-321.5 46.7-440 30.5-41.7 82.1-90.5 139.7-121.3C286.9 60.2 340.7 47 389.4 63c10 3.3 63.6 22.2 81.6 70 34.3 91-126.4 145.9-177.8 323.2z"/><path class="st7" d="M627.3 258.2c0 48.1-39 87.2-87.2 87.2-38.4 0-71-24.8-82.6-59.3 24.1-28 51.3-55.6 81.1-81.2 1-.9 2-1.7 3-2.6 10.1-8.6 20.5-16.9 31.2-24.9 32 12.9 54.5 44.2 54.5 80.8z"/><path class="st5" d="M601.8 258.2c0 .8-.7 1.5-1.5 1.5h-60.1c-.8 0-1.5-.7-1.5-1.5v-53.4c1-.9 2-1.7 3-2.6v54.4h58.6c.9.1 1.5.8 1.5 1.6z"/><path class="st3" d="M1160.1 278.9c-47.6 82.4-196.5 51-352.9 68.8-301.9 34.5-442.3 231.2-473.7 196.8-22.1-24.2 26.4-145 124.1-258.5 24.1-28 51.3-55.6 81.1-81.2 1-.9 2-1.7 3-2.6 10.1-8.6 20.5-16.9 31.2-24.9 70-52.7 152.5-92.7 244-103.3 125.5-14.6 320.3 20.1 352.1 120 .7 2.8 13.7 45.7-8.9 84.9z"/><g id="docs"><path class="st6" d="M1114.1 127.6v78.8h-51V102c18.7 7.2 36 15.7 51 25.6z"/><circle class="st7" cx="1088.6" cy="185.1" r="11.2"/><path class="st6" d="M1000.6 83.5v122.9h-51V74.7c17.2 2.2 34.3 5.1 51 8.8z"/><circle class="st7" cx="975.1" cy="185.1" r="11.2"/><path class="st6" d="M908.3 71v135.4h-51V70.3c16.5-.5 33.6-.3 51 .7z"/><circle class="st7" cx="882.8" cy="185.1" r="11.2"/><path class="st6" d="M851.3 70.5v135.9h-51V75.5c5.5-.8 11-1.6 16.5-2.2 11-1.4 22.5-2.3 34.5-2.8z"/><circle class="st7" cx="825.8" cy="185.1" r="11.2"/><path class="st6" d="M1057.8 100v106.4h-51V84.9c17.7 4.1 34.9 9.1 51 15.1z"/><circle class="st7" cx="1032.3" cy="185.1" r="11.2"/><path id="shelf" d="M1134 222.5H779.2c-3.1 0-5.5-2.5-5.5-5.5v-11.2c0-3.1 2.5-5.5 5.5-5.5H1134c3.1 0 5.5 2.5 5.5 5.5V217c0 3-2.5 5.5-5.5 5.5z" fill="#dfded9"/></g><path class="st3" d="M1160.1 278c-47.6 82.4-196.5 51-352.9 68.8C505.3 381.3 364.9 578 333.5 543.6c-40.9-44.8 160-420.2 466.7-468.2 5.5-.8 11-1.6 16.5-2.2 11-1.3 22.5-2.2 34.5-2.7 2-.1 4-.2 6.1-.2 16.5-.5 33.6-.3 51 .7 13.7.8 27.5 2 41.3 3.7 17.2 2.1 34.3 5 51 8.7 2.1.5 4.2.9 6.2 1.4 17.7 4.1 34.9 9.1 51 15.1 1.8.7 3.5 1.3 5.3 2 18.7 7.2 36 15.8 51 25.6 26.7 17.5 46.4 39.3 54.8 65.6.8 2.9 13.8 45.8-8.8 84.9z"/></g></g><g id="main"><g id="general_1_"><g id="chair"><path class="st5" d="M1016 760.3l-12.7 226h-10.6l-10.5-182.1c-9.2 7.4-19.3 13.4-30.1 18.1-.3.1-.6.2-.9.4-.6.2-1.1.5-1.7.7-3.5 1.4-7 2.7-10.5 3.9l-7.3 130.3h-10.6L913.9 833c-.8.1-1.6.2-2.3.3-1.1.1-2.2.2-3.2.4-1 .1-2 .2-2.9.3-1.7.1-3.2.2-4.5.3-.4 0-.8 0-1.2.1h-.7l-12.2 217.2h-10.6l-12.8-220.1c-5.9-1.2-11.7-2.9-17.4-4.9l-.9-.3c-2-.7-3.9-1.5-5.8-2.3-4-1.7-8.9-3.7-13.9-6.2l-9.3 165.3h-10.6l-11.2-192.8c-.7-1.8-1.3-3.7-1.7-5.7-.9-4.6-.6-9.4.5-14.2l-1.1-18.3h9.7c14.5-20.9 43-39.6 69.8-45.9 4.5-1 9-1.8 13.6-2.2-4.6-60.6-11.6-164.1 14.7-188.2 31.5-28.9 139.9-19.2 172.5 9.3 5.5 4.8 8.9 10.2 9.3 16.1 2.6 34.6-51.1 180.2-65.7 219.1z"/><path d="M1016 760.3l-12.7 226h-10.6l-10.5-182.1c30.2-31.9 79.2-232.2 90.4-279.2 5.5 4.8 8.9 10.2 9.3 16.1 2.4 34.7-51.3 180.3-65.9 219.2z" opacity=".16" fill="#253041"/><path opacity=".34" fill="#253041" d="M794.5 790.2l31 27.5-9.2 165.4h-10.6z"/><path class="st12" d="M899 834.3l-12.2 217.2h-10.6l-12.8-220.1c-5.8-1.3 26.6 3.2 35.6 2.9z"/><path d="M949.5 823.4c-3.5 1.4-7 2.7-10.5 3.9l-7.3 130.3h-10.6L913.9 833c14.8-2.1 26.9-6 35.6-9.6z" opacity=".47" fill="#253041"/><path class="st12" d="M807.8 774.8s64.8 31.5 97.5 31 70.1-1.5 76.9-28.3c6.8-26.7 2.1-63.1 2.1-63.1l-176.5 60.4z"/></g><g id="woman"><g id="hand_back_1_"><path class="st14" d="M813.4 560.8l-10.8 5.4c-.5-2.8-1.5-5.4-3.5-7.2l-.3-.3c-1.1-.9-2.5-1.5-3.9-1.8-5.1-1.2-11.8.6-19.4 2.6-9.5 2.5-14.5 4.6-19.2 4.8h-1.5c-11.8-.5-18.5-7.4-19.1-9-.1-.2-.2-.7 0-.9.5-.6 2.4.1 3.4.6-2-2.2-3.8-4.7-3.2-5.9.6-1.3 3.4 1.3 6 4.1-.9-1.3-1.4-2.5-1.1-3.2 1-2.2 8.5 7 10.2 9.1 1.3.2 2.7.3 4.2.2 1-.1 1.9-.3 2.8-.5 0 0 .1 0 .3-.1.2-.1.5-.2.7-.2.1 0 .2-.1.2-.1 3.1-1.2 6.1-3.5 10-6.5 2.4-1.8 4.3-3.6 5.6-4.8l.2-.2c-4.5-1.3-8-1.5-10.4-1.3-1.5.1-4.1.4-6.1-1.2-.5-.4-1.4-1.2-1.3-1.9.5-2.2 11.4-1.6 19.2-1.1.8 0 8.4.4 15.8 2.3 1 .2 1.8.5 2.7.8 1.7.6 4.7 1.8 8.2 4.2.5.3.9.7 1.4 1 .7.6 1.5 1.2 2.3 1.9l3.8 4.9c.9 1.1 1.8 2.7 2.8 4.3z"/><path class="st15" d="M926.2 486.2c-10.7 65.7-21 113.5-24.9 128.4-1.4 5.4-5.8 21.5-18 31.1-2.3 1.8-15.4 12.2-30.2 9.7-23-3.8-35.8-36.6-50-73.2-4-10.3-6.8-19.1-8.7-25.4 3.9-2 7.9-4 11.8-6 1.9 1.8 4.2 4.2 6.7 7 3.6 4.2 6.1 7.7 7.2 9.2 4.1 6 6.9 11.4 11 19.6.2.5.4.8.5 1 .5 1 17.1 33.9 26.2 32.9 12.2-1.4 13.4-64.4 32.6-103.6 4.9-9.9 12.5-21.7 25.8-27.6 4-1.8 7.6-2.7 10-3.1z"/><path class="st16" d="M926.2 486.2c-10.7 65.7-21 113.5-24.9 128.4-1.4 5.4-5.8 21.5-18 31.1-2.3 1.8-15.4 12.2-30.2 9.7-6.7-1.1-12.5-4.7-17.8-10.1-12.8-13.2-22.1-37.2-32.2-63.1-4-10.3-6.8-19.1-8.7-25.4 1.6-.8 3.1-1.6 4.7-2.4 2.4-1.2 4.7-2.4 7.1-3.6 1.9 1.8 4.2 4.2 6.7 7 3.6 4.2 6.1 7.7 7.2 9.2 4.1 6 6.9 11.4 11 19.6.2.5.4.8.5 1 .5 1 17.1 34 26.2 32.9 12.2-1.4 13.4-64.4 32.6-103.6 4.9-9.9 12.5-21.7 25.8-27.6 4-1.8 7.6-2.7 10-3.1z"/><linearGradient id="SVGID_1_" gradientUnits="userSpaceOnUse" x1="794.447" y1="599.866" x2="844.473" y2="599.866"><stop offset="0" stop-color="#5a142a" stop-opacity=".2"/><stop offset="1" stop-color="#fc860a" stop-opacity=".2"/></linearGradient><path d="M844.5 642.5l-9.1 2.8c-12.8-13.2-22.1-37.2-32.2-63.1-4-10.3-6.8-19.1-8.7-25.4 1.6-.8 3.1-1.6 4.7-2.4l45.3 88.1z" opacity=".32" fill="url(#SVGID_1_)"/><path class="st18" d="M813.4 560.8l-10.8 5.4c-.5-2.8-1.5-5.4-3.5-7.2l-.3-.3c-1.1-.9-2.5-1.5-3.9-1.8-5.1-1.2-11.8.6-19.4 2.6-9.5 2.5-14.5 4.6-19.2 4.8l46.9-15.8c.5.3.9.7 1.4 1 .7.6 1.5 1.2 2.3 1.9l3.8 4.9c.8 1.3 1.7 2.9 2.7 4.5z"/><linearGradient id="SVGID_2_" gradientUnits="userSpaceOnUse" x1="759.264" y1="552.498" x2="778.305" y2="552.498"><stop offset="0" stop-color="#e2c8c0"/><stop offset="1" stop-color="#dd8093" stop-opacity=".4"/></linearGradient><path d="M778.3 548.4c-.4 3.1-14.6 8.2-19 9.7 3.1-1.2 6.1-3.5 10-6.5 2.4-1.8 4.3-3.6 5.6-4.8 2-.1 3.6.2 3.4 1.6z" opacity=".39" fill="url(#SVGID_2_)"/></g><g id="neck_1_"><path class="st14" d="M968.7 441.9l-4.8 23.1-34.9 7-1.9-14.7c3.1-3.6 14.4-16 31.3-16.6 3.8 0 7.3.5 10.3 1.2z"/><path class="st18" d="M968.7 441.9l-4.8 23.1-34.9 7-1.9-14.7c3.1-3.6 14.4-16 31.3-16.6 3.8 0 7.3.5 10.3 1.2z"/></g><g id="body"><path class="st20" d="M1060.7 621.6c0-.5-.1-1-.1-1.5-.4-4.2-1.1-8.9-2.1-14l-.6-3c-1-5.1-2.2-10.7-3.6-16.7-.1-.5-.2-.9-.3-1.4-2.5-10.8-5.6-23-9.1-36.8-1.5-5.9-3.1-11.9-5.2-17.9-.2-.5-.4-1.1-.6-1.6-1.7-4.8-3.8-9.6-6.2-14.3-.8-1.6-1.7-3.2-2.7-4.8-3.4-5.6-7.5-10.9-12.6-15.9-.8-.8-1.6-1.5-2.4-2.3-.5-.5-1.1-1-1.6-1.4-4.6-4-8.9-6.7-11.9-8.5-.3-.1-.6-.2-.9-.4-4.2-1.6-10.1-3.4-17.4-4-2.2-.2-4-.2-5.9-.1v-.1c.2-1.6 0-3-.3-4-.8-2.3-1.4-3.6-2-5-1.8-4-.1-6.3-.7-9.9-.4-2.5-2-5.8-7.2-9.3-2.2 1.3-5.6 3.1-9.9 4.5-2.9.9-6.2 1.7-9.8 2.1-8.3.8-15.1-.7-19-1.9-1 1.5-2.3 3.8-2.8 7s.2 4.8.1 8.5c-.1 2.9-.6 4.5-1.2 6.4-.2.7-.4 1.4-.6 2.3 0 .2-.1.3-.1.5-.4 2.1-.6 4.8-.3 8 0 .2 0 .5.1.8-4.8 3.5-8.2 9.3-14.8 21-.1.2-.2.3-.3.5-.5.8-.9 1.6-1.3 2.3-2.8 5.1-4.8 9.5-7.6 15.7-.6 1.4-1.3 2.8-2 4.4-.3.8-.7 1.5-1 2.2-.5 1-.9 2.1-1.4 3.1-2.6 5.8-4.7 10.3-6.3 14-.4.9-.8 1.7-1.1 2.5-1 2.1-1.7 3.8-2.4 5.3-.5 1-.9 1.9-1.2 2.7-.6 1.3-1.1 2.3-1.4 3.1-.9 2.1-1.3 3.1-1.7 4.8-2.6 9.3-3 17.8-2.8 24.7v.4c.2 5.7.9 10.5 1.1 13.9.1.7.1 1.4.2 2.2.1 1 .1 2 .2 3 .2 4.3.4 9.2.5 14.7v3.1c0 4.5-.1 9.3-.3 14.6 0 1.6-.1 3.2-.2 4.8-.2 4.3-.4 8.9-.8 13.8 0 .6-.1 1.2-.1 1.7-.9 13.6-2.4 29.4-4.5 47.8-.3 2.5-.6 5.1-.9 7.8-.2 1.8-.5 3.7-.7 5.6 10.7-.5 21.4-.9 32.1-1.4.6 0 1.2-.1 1.8-.1 4-.2 7.9-.3 11.9-.5l6.6-.3c3.9-.2 7.9-.4 11.8-.5.6 0 1.2 0 1.8-.1 12-.5 24-1.1 36-1.6 1.6-5.9 3.1-11.7 4.6-17.4.2-.9.5-1.8.7-2.7.6-2.3 1.2-4.6 1.8-6.8 2.6-10.1 5.1-19.9 7.5-29.4.3-1.2.6-2.4.9-3.7 1.2-4.9 2.5-9.8 3.6-14.5 2.4 1 5.3 2.1 8.6 3.2.5.2 1.1.4 1.6.6 1.5.5 3.1 1 4.8 1.4 3.5 1 7.2 1.9 11 2.6 5 .9 10.2 1.3 15.1 1.1.5 0 1-.1 1.5-.1 6.6-.6 12.8-2.6 17.5-6.8 2.1-1.8 3.6-4.1 4.7-6.8 2.1-5.5 2.5-12.3 1.8-21.2zm-58.9-5.9v-.2c.2-.7.3-1.4.5-2.1.2-.7.4-1.5.5-2.2 0-.1 0-.2.1-.2 0-.1 0-.2.1-.3 1.8-7.5 3.5-14.8 5.2-21.9 0-.1 0-.2.1-.3.4-1.7.8-3.4 1.2-5 0 .1.1.2.1.2 8.8 17 14.8 27.4 10.4 32.3-1 1.1-2.2 1.7-4.5 1.8h-.5c-2.7.2-6.8-.6-13.2-2.1z"/><path class="st22" d="M934.9 465.1c.4-.6 1.2-1.8 2.7-2.6 1-.6 1.9-.8 2.5-1-.6-.4-1.6-1.2-2.4-2.4-.7-1.1-1-2.1-1.2-2.7-.4.6-1.1 1.6-2.3 2.4-1.1.8-2.2 1.1-2.9 1.2.6.5 1.5 1.3 2.2 2.4.7 1 1.1 2 1.4 2.7zm15.6 2.3c.4-.6 1.2-1.8 2.7-2.6 1-.6 1.9-.8 2.5-1-.6-.4-1.6-1.2-2.4-2.4-.7-1.1-1-2.1-1.2-2.7-.4.6-1.1 1.6-2.3 2.4-1.1.8-2.2 1.1-2.9 1.2.6.5 1.5 1.3 2.2 2.4.7 1 1.1 1.9 1.4 2.7zm15.5 2c.4-.6 1.2-1.8 2.7-2.6 1-.6 1.9-.8 2.5-1-.6-.4-1.6-1.2-2.4-2.4-.7-1.1-1-2.1-1.2-2.7-.4.6-1.1 1.6-2.3 2.4-1.1.8-2.2 1.1-2.9 1.2.6.5 1.5 1.3 2.2 2.4.8 1 1.2 2 1.4 2.7zm-39.5 7.7c-.6.1-1.5.4-2.5 1 0 0-.1 0-.1.1 0-.2.1-.3.1-.5.2-.8.4-1.6.6-2.3.7.7 1.4 1.3 1.9 1.7zm13.1-2.3c-.4.6-1.1 1.6-2.3 2.4-1.1.8-2.2 1.1-2.9 1.2.6.5 1.5 1.3 2.2 2.4.7 1 1.1 2 1.4 2.7.4-.6 1.2-1.8 2.7-2.6 1-.6 1.9-.8 2.5-1-.6-.4-1.6-1.2-2.4-2.4-.7-1-1-2-1.2-2.7zm15.6 2.3c-.4.6-1.1 1.6-2.3 2.4-1.1.8-2.2 1.1-2.9 1.2.6.5 1.5 1.3 2.2 2.4.7 1 1.1 2 1.4 2.7.4-.6 1.2-1.8 2.7-2.6 1-.6 1.9-.8 2.5-1-.6-.4-1.6-1.2-2.4-2.4-.7-1.1-1-2.1-1.2-2.7zm15.6 2c-.4.6-1.1 1.6-2.3 2.4-1.1.8-2.2 1.1-2.9 1.2.6.5 1.5 1.3 2.2 2.4.7 1 1.1 2 1.4 2.7.4-.6 1.2-1.8 2.7-2.6 1-.6 1.9-.8 2.5-1-.6-.4-1.6-1.2-2.4-2.4-.7-1-1.1-2-1.2-2.7zm15.6 2.3c-.4.6-1.1 1.6-2.3 2.4-1.1.8-2.2 1.1-2.9 1.2.6.5 1.5 1.3 2.2 2.4.7 1 1.1 2 1.4 2.7.4-.6 1.2-1.8 2.7-2.6 1-.6 1.9-.8 2.5-1-.6-.4-1.6-1.2-2.4-2.4-.7-1.1-1-2.1-1.2-2.7zm15.7 3.1c-.4.6-1.1 1.6-2.3 2.4-1.1.8-2.2 1.1-2.9 1.2.6.5 1.5 1.3 2.2 2.4.7 1 1.1 2 1.4 2.7.4-.6 1.2-1.8 2.7-2.6 1-.6 1.9-.8 2.5-1-.6-.4-1.6-1.2-2.4-2.4-.7-1-1-2-1.2-2.7zm15.5 9.3c-.7.6-1.2 1.3-1.5 1.7-.3-.7-.7-1.7-1.4-2.7-.8-1.1-1.6-1.9-2.2-2.4.3-.1.6-.1 1-.3.5.5 1.1.9 1.6 1.4.9.7 1.7 1.5 2.5 2.3zm-91.8-.8c-.7-1.1-1-2.1-1.2-2.7-.4.6-1.1 1.6-2.3 2.4-1.1.8-2.2 1.1-2.9 1.2.6.5 1.5 1.3 2.2 2.4.7 1 1.1 2 1.4 2.7.4-.6 1.2-1.8 2.7-2.6 1-.6 1.9-.8 2.5-1-.6-.4-1.6-1.1-2.4-2.4zm12.9 8.2c.4-.6 1.2-1.8 2.7-2.6 1-.6 1.9-.8 2.5-1-.6-.4-1.6-1.2-2.4-2.4-.7-1.1-1-2.1-1.2-2.7-.4.6-1.1 1.6-2.3 2.4-1.1.8-2.2 1.1-2.9 1.2.6.5 1.5 1.3 2.2 2.4.7 1.1 1.1 2 1.4 2.7zm15.5 2.1c.4-.6 1.2-1.8 2.7-2.6 1-.6 1.9-.8 2.5-1-.6-.4-1.6-1.2-2.4-2.4-.7-1.1-1-2.1-1.2-2.7-.4.6-1.1 1.6-2.3 2.4-1.1.8-2.2 1.1-2.9 1.2.6.5 1.5 1.3 2.2 2.4.8 1 1.2 2 1.4 2.7zm15.6 2.2c.4-.6 1.2-1.8 2.7-2.6 1-.6 1.9-.8 2.5-1-.6-.4-1.6-1.2-2.4-2.4-.7-1.1-1-2.1-1.2-2.7-.4.6-1.1 1.6-2.3 2.4-1.1.8-2.2 1.1-2.9 1.2.6.5 1.5 1.3 2.2 2.4.8 1 1.2 2 1.4 2.7zm15.7 3.2c.4-.6 1.2-1.8 2.7-2.6 1-.6 1.9-.8 2.5-1-.6-.4-1.6-1.2-2.4-2.4-.7-1.1-1-2.1-1.2-2.7-.4.6-1.1 1.6-2.3 2.4-1.1.8-2.2 1.1-2.9 1.2.6.5 1.5 1.3 2.2 2.4.8 1 1.2 2 1.4 2.7zm15.7 2.3c.4-.6 1.2-1.8 2.7-2.6 1-.6 1.9-.8 2.5-1-.6-.4-1.6-1.2-2.4-2.4-.7-1.1-1-2.1-1.2-2.7-.4.6-1.1 1.6-2.3 2.4-1.1.8-2.2 1.1-2.9 1.2.6.5 1.5 1.3 2.2 2.4.7 1 1.1 1.9 1.4 2.7zm15.5 2c.4-.6 1.2-1.8 2.7-2.6 1-.6 1.9-.8 2.5-1-.6-.4-1.6-1.2-2.4-2.4-.7-1.1-1-2.1-1.2-2.7-.4.6-1.1 1.6-2.3 2.4-1.1.8-2.2 1.1-2.9 1.2.6.5 1.5 1.3 2.2 2.4.7 1 1.2 2 1.4 2.7zm16.2 1.5c-.2.3-.4.6-.6.8-.3-.7-.7-1.7-1.4-2.7-.8-1.1-1.6-1.9-2.2-2.5.4-.1.9-.2 1.4-.4 1.1 1.5 2 3.1 2.8 4.8zm-118.2-3.6c-.6.1-1.5.4-2.5 1-1.4.9-2.3 2-2.7 2.6-.3-.7-.7-1.7-1.3-2.7-.3-.4-.6-.8-.9-1.1.4-.8.8-1.5 1.3-2.3.1 0 .2-.1.2-.2 1.2-.8 1.9-1.8 2.3-2.4.2.7.5 1.7 1.2 2.7.8 1.3 1.8 2 2.4 2.4zm13.1-2.2c-.4.6-1.1 1.6-2.3 2.4-1.1.8-2.2 1.1-2.9 1.2.6.5 1.5 1.3 2.2 2.4.7 1 1.1 2 1.4 2.7.4-.6 1.2-1.8 2.7-2.6 1-.6 1.9-.8 2.5-1-.6-.4-1.6-1.2-2.4-2.4-.7-1-1-2-1.2-2.7zm15.6 2.2c-.4.6-1.1 1.6-2.3 2.4-1.1.8-2.2 1.1-2.9 1.2.6.5 1.5 1.3 2.2 2.4.7 1 1.1 2 1.4 2.7.4-.6 1.2-1.8 2.7-2.6 1-.6 1.9-.8 2.5-1-.6-.4-1.6-1.2-2.4-2.4-.7-1-1-2-1.2-2.7zM959 513c-.4.6-1.1 1.6-2.3 2.4-1.1.8-2.2 1.1-2.9 1.2.6.5 1.5 1.3 2.2 2.4.7 1 1.1 2 1.4 2.7.4-.6 1.2-1.8 2.7-2.6 1-.6 1.9-.8 2.5-1-.6-.4-1.6-1.2-2.4-2.4-.7-1-1.1-2-1.2-2.7zm15.6 2.2c-.4.6-1.1 1.6-2.3 2.4-1.1.8-2.2 1.1-2.9 1.2.6.5 1.5 1.3 2.2 2.4.7 1 1.1 2 1.4 2.7.4-.6 1.2-1.8 2.7-2.6 1-.6 1.9-.8 2.5-1-.6-.4-1.6-1.2-2.4-2.4-.7-1-1-2-1.2-2.7zm15.7 3.2c-.4.6-1.1 1.6-2.3 2.4-1.1.8-2.2 1.1-2.9 1.2.6.5 1.5 1.3 2.2 2.4.7 1 1.1 2 1.4 2.7.4-.6 1.2-1.8 2.7-2.6 1-.6 1.9-.8 2.5-1-.6-.4-1.6-1.2-2.4-2.4-.7-1-1-2-1.2-2.7zm15.6 2.2c-.4.6-1.1 1.6-2.3 2.4-1.1.8-2.2 1.1-2.9 1.2.6.5 1.5 1.3 2.2 2.4.7 1 1.1 2 1.4 2.7.4-.6 1.2-1.8 2.7-2.6 1-.6 1.9-.8 2.5-1-.6-.4-1.6-1.2-2.4-2.4-.7-1-1-2-1.2-2.7zm15.6 2.1c-.4.6-1.1 1.6-2.3 2.4-1.1.8-2.2 1.1-2.9 1.2.6.5 1.5 1.3 2.2 2.4.7 1 1.1 2 1.4 2.7.4-.6 1.2-1.8 2.7-2.6 1-.6 1.9-.8 2.5-1-.6-.4-1.6-1.2-2.4-2.4-.8-1-1.1-2-1.2-2.7zm18.2 7.7c-.5.2-1 .4-1.5.7-1.4.8-2.3 2-2.7 2.6-.3-.7-.7-1.7-1.4-2.7-.8-1.1-1.6-1.9-2.2-2.4.7-.1 1.8-.4 2.9-1.2 1.2-.8 1.9-1.8 2.3-2.4.2.7.5 1.7 1.2 2.7.3.4.6.8.9 1.1.1.5.3 1 .5 1.6zm-139.9-4c-.1 0-.1 0 0 0-.1 0-.1 0 0 0-.1 0-.1 0 0 0zm10.4 5.8c.4-.6 1.2-1.8 2.7-2.6 1-.6 1.9-.8 2.5-1-.6-.4-1.6-1.2-2.4-2.4-.7-1.1-1-2.1-1.2-2.7-.4.6-1.1 1.6-2.3 2.4-1.1.8-2.2 1.1-2.9 1.2.6.5 1.5 1.3 2.2 2.4.8 1 1.2 2 1.4 2.7zm16.7 2.9c.4-.6 1.2-1.8 2.7-2.6 1-.6 1.9-.8 2.5-1-.6-.4-1.6-1.2-2.4-2.4-.7-1.1-1-2.1-1.2-2.7-.4.6-1.1 1.6-2.3 2.4-1.1.8-2.2 1.1-2.9 1.2.6.5 1.5 1.3 2.2 2.4.7 1 1.2 2 1.4 2.7zm15.6 2.3c.4-.6 1.2-1.8 2.7-2.6 1-.6 1.9-.8 2.5-1-.6-.4-1.6-1.2-2.4-2.4-.7-1.1-1-2.1-1.2-2.7-.4.6-1.1 1.6-2.3 2.4-1.1.8-2.2 1.1-2.9 1.2.6.5 1.5 1.3 2.2 2.4.8 1 1.2 1.9 1.4 2.7zm15.5 2c.4-.6 1.2-1.8 2.7-2.6 1-.6 1.9-.8 2.5-1-.6-.4-1.6-1.2-2.4-2.4-.7-1.1-1-2.1-1.2-2.7-.4.6-1.1 1.6-2.3 2.4-1.1.8-2.2 1.1-2.9 1.2.6.5 1.5 1.3 2.2 2.4.8 1 1.2 2 1.4 2.7zm15.7 2.3c.4-.6 1.2-1.8 2.7-2.6 1-.6 1.9-.8 2.5-1-.6-.4-1.6-1.2-2.4-2.4-.7-1.1-1-2.1-1.2-2.7-.4.6-1.1 1.6-2.3 2.4-1.1.8-2.2 1.1-2.9 1.2.6.5 1.5 1.3 2.2 2.4.7 1 1.1 1.9 1.4 2.7zm15.7 3.1c.4-.6 1.2-1.8 2.7-2.6 1-.6 1.9-.8 2.5-1-.6-.4-1.6-1.2-2.4-2.4-.7-1.1-1-2.1-1.2-2.7-.4.6-1.1 1.6-2.3 2.4-1.1.8-2.2 1.1-2.9 1.2.6.5 1.5 1.3 2.2 2.4.7 1 1.1 2 1.4 2.7zm15.6 2.3c.4-.6 1.2-1.8 2.7-2.6 1-.6 1.9-.8 2.5-1-.6-.4-1.6-1.2-2.4-2.4-.7-1.1-1-2.1-1.2-2.7-.4.6-1.1 1.6-2.3 2.4-1.1.8-2.2 1.1-2.9 1.2.6.5 1.5 1.3 2.2 2.4.7 1 1.1 1.9 1.4 2.7zm15.5 2c.4-.6 1.2-1.8 2.7-2.6 1-.6 1.9-.8 2.5-1-.6-.4-1.6-1.2-2.4-2.4-.7-1.1-1-2.1-1.2-2.7-.4.6-1.1 1.6-2.3 2.4-1.1.8-2.2 1.1-2.9 1.2.6.5 1.5 1.3 2.2 2.4.8 1 1.2 2 1.4 2.7zm15.6 2.3c.4-.6 1.2-1.8 2.7-2.6 1-.6 1.9-.8 2.5-1-.6-.4-1.6-1.2-2.4-2.4-.7-1.1-1-2.1-1.2-2.7-.4.6-1.1 1.6-2.3 2.4-1.1.8-2.2 1.1-2.9 1.2.6.5 1.5 1.3 2.2 2.4.8 1 1.2 1.9 1.4 2.7zm-136.8-11.7c-.4.6-1.1 1.6-2.3 2.4-1.1.8-2.2 1.1-2.9 1.2.6.5 1.5 1.3 2.2 2.4.7 1 1.1 2 1.4 2.7.4-.6 1.2-1.8 2.7-2.6 1-.6 1.9-.8 2.5-1-.6-.4-1.6-1.2-2.4-2.4-.7-1-1-2.1-1.2-2.7zm15.5 2.8c-.3.6-1 1.5-2.2 2.3-1.1.8-2.2 1.1-2.8 1.2.6.5 1.4 1.3 2.2 2.4.7 1 1.1 1.9 1.3 2.7.4-.6 1.2-1.7 2.6-2.6.9-.6 1.8-.8 2.5-.9-.6-.4-1.6-1.2-2.4-2.4-.8-1-1.1-2-1.2-2.7zm16.9 2.3c-.4.6-1.1 1.6-2.3 2.4-1.1.8-2.2 1.1-2.9 1.2.6.5 1.5 1.3 2.2 2.4.7 1 1.1 2 1.4 2.7.4-.6 1.2-1.8 2.7-2.6 1-.6 1.9-.8 2.5-1-.6-.4-1.6-1.2-2.4-2.4-.8-1-1.1-2-1.2-2.7zm15.6 2.3c-.4.6-1.1 1.6-2.3 2.4-1.1.8-2.2 1.1-2.9 1.2.6.5 1.5 1.3 2.2 2.4.7 1 1.1 2 1.4 2.7.4-.6 1.2-1.8 2.7-2.6 1-.6 1.9-.8 2.5-1-.6-.4-1.6-1.2-2.4-2.4-.7-1-1-2-1.2-2.7zm15.5 2c-.4.6-1.1 1.6-2.3 2.4-1.1.8-2.2 1.1-2.9 1.2.6.5 1.5 1.3 2.2 2.4.7 1 1.1 2 1.4 2.7.4-.6 1.2-1.8 2.7-2.6 1-.6 1.9-.8 2.5-1-.6-.4-1.6-1.2-2.4-2.4-.7-1-1-2-1.2-2.7zm15.6 2.3c-.4.6-1.1 1.6-2.3 2.4-1.1.8-2.2 1.1-2.9 1.2.6.5 1.5 1.3 2.2 2.4.7 1 1.1 2 1.4 2.7.4-.6 1.2-1.8 2.7-2.6 1-.6 1.9-.8 2.5-1-.6-.4-1.6-1.2-2.4-2.4-.7-1.1-1-2.1-1.2-2.7zm15.7 3.1c-.4.6-1.1 1.6-2.3 2.4-1.1.8-2.2 1.1-2.9 1.2.6.5 1.5 1.3 2.2 2.4.7 1 1.1 2 1.4 2.7.4-.6 1.2-1.8 2.7-2.6 1-.6 1.9-.8 2.5-1-.6-.4-1.6-1.2-2.4-2.4-.7-1-1-2-1.2-2.7zm15.6 2.3c-.4.6-1.1 1.6-2.3 2.4-1.1.8-2.2 1.1-2.9 1.2.6.5 1.5 1.3 2.2 2.4.7 1 1.1 2 1.4 2.7.4-.6 1.2-1.8 2.7-2.6 1-.6 1.9-.8 2.5-1-.6-.4-1.6-1.2-2.4-2.4-.7-1-1-2.1-1.2-2.7zm15.6 2c-.4.6-1.1 1.6-2.3 2.4-1.1.8-2.2 1.1-2.9 1.2.6.5 1.5 1.3 2.2 2.4.7 1 1.1 2 1.4 2.7.4-.6 1.2-1.8 2.7-2.6 1-.6 1.9-.8 2.5-1-.6-.4-1.6-1.2-2.4-2.4-.7-1-1.1-2-1.2-2.7zm15.6 2.3c-.4.6-1.1 1.6-2.3 2.4-1.1.8-2.2 1.1-2.9 1.2.6.5 1.5 1.3 2.2 2.4.7 1 1.1 2 1.4 2.7.4-.6 1.2-1.8 2.7-2.6 1-.6 1.9-.8 2.5-1-.6-.4-1.6-1.2-2.4-2.4-.7-1.1-1.1-2.1-1.2-2.7zm-152.8-.5c-.6.1-1.5.4-2.5.9-1.4.9-2.2 2-2.6 2.6-.1-.2-.1-.4-.2-.6.4-.8.8-1.8 1.4-3.1.4-.8.8-1.7 1.2-2.7.1.2.2.3.3.5.9 1.3 1.8 2 2.4 2.4zm10.3 5.8c.4-.6 1.2-1.7 2.6-2.6.9-.6 1.8-.8 2.5-.9-.6-.4-1.6-1.2-2.4-2.4-.7-1-1-2-1.2-2.7-.3.6-1 1.5-2.2 2.3-1.1.8-2.2 1.1-2.8 1.2.6.5 1.4 1.3 2.2 2.4.7 1 1.1 1.9 1.3 2.7zm19.2-3.1c-.7-1-1-2-1.2-2.7-.3.6-1 1.5-2.2 2.3-1.1.8-2.2 1.1-2.8 1.2.6.5 1.4 1.3 2.2 2.4.7 1 1.1 1.9 1.3 2.7.4-.6 1.2-1.7 2.6-2.6.9-.6 1.8-.8 2.5-.9-.6-.4-1.6-1.1-2.4-2.4zm14.7-.7c-.4.6-1.1 1.6-2.3 2.4-1.1.8-2.2 1.1-2.9 1.2.6.5 1.5 1.3 2.2 2.4.7 1 1.1 2 1.4 2.7.4-.6 1.2-1.8 2.7-2.6 1-.6 1.9-.8 2.5-1-.6-.4-1.6-1.2-2.4-2.4-.7-1.1-1-2.1-1.2-2.7zm15.6 2c-.4.6-1.1 1.6-2.3 2.4-1.1.8-2.2 1.1-2.9 1.2.6.5 1.5 1.3 2.2 2.4.7 1 1.1 2 1.4 2.7.4-.6 1.2-1.8 2.7-2.6 1-.6 1.9-.8 2.5-1-.6-.4-1.6-1.2-2.4-2.4-.8-1-1.1-2-1.2-2.7zm15.5 2.2c-.4.6-1.1 1.6-2.3 2.4-1.1.8-2.2 1.1-2.9 1.2.6.5 1.5 1.3 2.2 2.4.7 1 1.1 2 1.4 2.7.4-.6 1.2-1.8 2.7-2.6 1-.6 1.9-.8 2.5-1-.6-.4-1.6-1.2-2.4-2.4-.7-1-1-2-1.2-2.7zm15.7 3.2c-.4.6-1.1 1.6-2.3 2.4-1.1.8-2.2 1.1-2.9 1.2.6.5 1.5 1.3 2.2 2.4.7 1 1.1 2 1.4 2.7.4-.6 1.2-1.8 2.7-2.6 1-.6 1.9-.8 2.5-1-.6-.4-1.6-1.2-2.4-2.4-.7-1-1-2-1.2-2.7zm15.6 2.2c-.4.6-1.1 1.6-2.3 2.4-1.1.8-2.2 1.1-2.9 1.2.6.5 1.5 1.3 2.2 2.4.7 1 1.1 2 1.4 2.7.4-.6 1.2-1.8 2.7-2.6 1-.6 1.9-.8 2.5-1-.6-.4-1.6-1.2-2.4-2.4-.7-1-1-2-1.2-2.7zm16.7 8.2c1-.6 1.9-.8 2.5-1-.6-.4-1.6-1.2-2.4-2.4-.7-1.1-1-2.1-1.2-2.7-.4.6-1.1 1.6-2.3 2.4-1.1.8-2.2 1.1-2.9 1.2.6.5 1.5 1.3 2.2 2.4.7 1 1.1 2 1.4 2.7.4-.6 1.2-1.7 2.7-2.6zm12.9 4.9c.4-.6 1.2-1.8 2.7-2.6 1-.6 1.9-.8 2.5-1-.6-.4-1.6-1.2-2.4-2.4-.7-1.1-1-2.1-1.2-2.7-.4.6-1.1 1.6-2.3 2.4-1.1.8-2.2 1.1-2.9 1.2.6.5 1.5 1.3 2.2 2.4.8 1 1.2 1.9 1.4 2.7zm19.5-3.1c-.7-1.1-1-2.1-1.2-2.7-.4.6-1.1 1.6-2.3 2.4-1.1.8-2.2 1.1-2.9 1.2.6.5 1.5 1.3 2.2 2.4.7 1 1.1 2 1.4 2.7.4-.6 1.2-1.8 2.7-2.6 1-.6 1.9-.8 2.5-1-.6-.4-1.6-1.2-2.4-2.4zm10.5 4.2c-.4-.5-.9-.9-1.2-1.2.2-.1.5-.1.9-.2.1.5.2 1 .3 1.4zm-166.6-12.7c-.3.6-1 1.5-2.2 2.3-1.1.8-2.2 1.1-2.8 1.2.6.5 1.4 1.3 2.2 2.4.7 1 1.1 1.9 1.3 2.7.4-.6 1.2-1.7 2.6-2.6.9-.6 1.8-.8 2.5-.9-.6-.4-1.6-1.2-2.4-2.4-.7-1-1-2-1.2-2.7zm16.5 8.2c1-.6 1.9-.8 2.5-1-.6-.4-1.6-1.2-2.4-2.4-.7-1.1-1-2.1-1.2-2.7-.4.6-1.1 1.6-2.3 2.4-1.1.8-2.2 1.1-2.9 1.2.6.5 1.5 1.3 2.2 2.4.7 1 1.1 2 1.4 2.7.5-.6 1.3-1.7 2.7-2.6zm14.1 5.6c.4-.6 1.2-1.8 2.7-2.6 1-.6 1.9-.8 2.5-1-.6-.4-1.6-1.2-2.4-2.4-.7-1.1-1-2.1-1.2-2.7-.4.6-1.1 1.6-2.3 2.4-1.1.8-2.2 1.1-2.9 1.2.6.5 1.5 1.3 2.2 2.4.7 1 1.1 1.9 1.4 2.7zm15.6 2.2c.4-.6 1.2-1.8 2.7-2.6 1-.6 1.9-.8 2.5-1-.6-.4-1.6-1.2-2.4-2.4-.7-1.1-1-2.1-1.2-2.7-.4.6-1.1 1.6-2.3 2.4-1.1.8-2.2 1.1-2.9 1.2.6.5 1.5 1.3 2.2 2.4.7 1 1.1 2 1.4 2.7zm15.6 2.1c.4-.6 1.2-1.8 2.7-2.6 1-.6 1.9-.8 2.5-1-.6-.4-1.6-1.2-2.4-2.4-.7-1.1-1-2.1-1.2-2.7-.4.6-1.1 1.6-2.3 2.4-1.1.8-2.2 1.1-2.9 1.2.6.5 1.5 1.3 2.2 2.4.7 1 1.1 1.9 1.4 2.7zm15.6 2.2c.4-.6 1.2-1.8 2.7-2.6 1-.6 1.9-.8 2.5-1-.6-.4-1.6-1.2-2.4-2.4-.7-1.1-1-2.1-1.2-2.7-.4.6-1.1 1.6-2.3 2.4-1.1.8-2.2 1.1-2.9 1.2.6.5 1.5 1.3 2.2 2.4.7 1 1.1 2 1.4 2.7zm15.7 3.2c.4-.6 1.2-1.8 2.7-2.6 1-.6 1.9-.8 2.5-1-.6-.4-1.6-1.2-2.4-2.4-.7-1.1-1-2.1-1.2-2.7-.4.6-1.1 1.6-2.3 2.4-1.1.8-2.2 1.1-2.9 1.2.6.5 1.5 1.3 2.2 2.4.7 1 1.1 2 1.4 2.7zm15.5 2.2c.4-.6 1.2-1.8 2.7-2.6 1-.6 1.9-.8 2.5-1-.6-.4-1.6-1.2-2.4-2.4-.7-1.1-1-2.1-1.2-2.7-.4.6-1.1 1.6-2.3 2.4-1.1.8-2.2 1.1-2.9 1.2.6.5 1.5 1.3 2.2 2.4.8 1 1.2 1.9 1.4 2.7zm33.9 1.7c1-.6 1.9-.8 2.5-1-.6-.4-1.6-1.2-2.4-2.4-.7-1.1-1-2.1-1.2-2.7-.4.6-1.1 1.6-2.3 2.4-1.1.8-2.2 1.1-2.9 1.2.6.5 1.5 1.3 2.2 2.4.7 1 1.1 2 1.4 2.7.4-.7 1.2-1.8 2.7-2.6zm14 5.5c.4-.6 1.2-1.8 2.7-2.6 1-.6 1.9-.8 2.5-1-.6-.4-1.6-1.2-2.4-2.4-.7-1.1-1-2.1-1.2-2.7-.4.6-1.1 1.6-2.3 2.4-1.1.8-2.2 1.1-2.9 1.2.6.5 1.5 1.3 2.2 2.4.7 1 1.1 2 1.4 2.7zm14.2-.5c-.8-1.1-1.6-1.9-2.2-2.4.4-.1 1-.2 1.7-.5.2 1 .4 2 .5 2.9zm-179.6-12.6c-.1 0-.3.1-.4.1v-.4c.1.1.2.2.4.3zm10.4 5.8c.4-.6 1.2-1.8 2.7-2.6 1-.6 1.9-.8 2.5-1-.6-.4-1.6-1.2-2.4-2.4-.7-1.1-1-2.1-1.2-2.7-.4.6-1.1 1.6-2.3 2.4-1.1.8-2.2 1.1-2.9 1.2.6.5 1.5 1.3 2.2 2.4.8 1 1.2 1.9 1.4 2.7zm16.7 2.9c.4-.6 1.2-1.8 2.7-2.6 1-.6 1.9-.8 2.5-1-.6-.4-1.6-1.2-2.4-2.4-.7-1.1-1-2.1-1.2-2.7-.4.6-1.1 1.6-2.3 2.4-1.1.8-2.2 1.1-2.9 1.2.6.5 1.5 1.3 2.2 2.4.8 1 1.2 2 1.4 2.7zm15.7 2.2c.4-.6 1.2-1.8 2.7-2.6 1-.6 1.9-.8 2.5-1-.6-.4-1.6-1.2-2.4-2.4-.7-1.1-1-2.1-1.2-2.7-.4.6-1.1 1.6-2.3 2.4-1.1.8-2.2 1.1-2.9 1.2.6.5 1.5 1.3 2.2 2.4.7 1.1 1.1 2 1.4 2.7zm15.5 2.1c.4-.6 1.2-1.8 2.7-2.6 1-.6 1.9-.8 2.5-1-.6-.4-1.6-1.2-2.4-2.4-.7-1.1-1-2.1-1.2-2.7-.4.6-1.1 1.6-2.3 2.4-1.1.8-2.2 1.1-2.9 1.2.6.5 1.5 1.3 2.2 2.4.7 1 1.2 2 1.4 2.7zm15.6 2.2c.4-.6 1.2-1.8 2.7-2.6 1-.6 1.9-.8 2.5-1-.6-.4-1.6-1.2-2.4-2.4-.7-1.1-1-2.1-1.2-2.7-.4.6-1.1 1.6-2.3 2.4-1.1.8-2.2 1.1-2.9 1.2.6.5 1.5 1.3 2.2 2.4.8 1 1.2 2 1.4 2.7zm15.8 3.2c.4-.6 1.2-1.8 2.7-2.6 1-.6 1.9-.8 2.5-1-.6-.4-1.6-1.2-2.4-2.4-.7-1.1-1-2.1-1.2-2.7-.4.6-1.1 1.6-2.3 2.4-1.1.8-2.2 1.1-2.9 1.2.6.5 1.5 1.3 2.2 2.4.7 1 1.1 2 1.4 2.7zm15.6 2.3c.4-.6 1.2-1.8 2.7-2.6 1-.6 1.9-.8 2.5-1-.6-.4-1.6-1.2-2.4-2.4-.7-1.1-1-2.1-1.2-2.7-.4.6-1.1 1.6-2.3 2.4-1.1.8-2.2 1.1-2.9 1.2.6.5 1.5 1.3 2.2 2.4.7 1 1.1 1.9 1.4 2.7zm19.4-2.6c-.1.5-.2 1-.4 1.5-.3.1-.6.3-.9.5-1.4.9-2.3 2-2.7 2.6-.3-.7-.7-1.7-1.4-2.7-.8-1.1-1.6-1.9-2.2-2.4.7-.1 1.7-.4 2.9-1.2 1.2-.8 1.9-1.8 2.3-2.4.2.7.5 1.7 1.2 2.7.4.5.8 1 1.2 1.4zm12.1 6.1c-.2.2-.3.5-.4.7-.1-.2-.2-.4-.3-.7h.7zm16.3 3.6c.4-.6 1.2-1.8 2.7-2.6 1-.6 1.9-.8 2.5-1-.6-.4-1.6-1.2-2.4-2.4-.7-1.1-1-2.1-1.2-2.7-.4.6-1.1 1.6-2.3 2.4-1.1.8-2.2 1.1-2.9 1.2.6.5 1.5 1.3 2.2 2.4.7 1 1.1 2 1.4 2.7zm15.6 2.3c.4-.6 1.2-1.8 2.7-2.6 1-.6 1.9-.8 2.5-1-.6-.4-1.6-1.2-2.4-2.4-.7-1.1-1-2.1-1.2-2.7-.4.6-1.1 1.6-2.3 2.4-1.1.8-2.2 1.1-2.9 1.2.6.5 1.5 1.3 2.2 2.4.7 1 1.1 1.9 1.4 2.7zm13.2-2c-.4-.5-.9-.9-1.2-1.2.3-.1.7-.1 1.1-.3 0 .6 0 1 .1 1.5zM882 611.9c-.5.1-1.3.3-2.1.7-.1-1-.1-2-.2-3 .8 1.2 1.7 1.9 2.3 2.3zm10.4 5.8c.4-.6 1.2-1.8 2.7-2.6 1-.6 1.9-.8 2.5-1-.6-.4-1.6-1.2-2.4-2.4-.7-1.1-1-2.1-1.2-2.7-.4.6-1.1 1.6-2.3 2.4-1.1.8-2.2 1.1-2.9 1.2.6.5 1.5 1.3 2.2 2.4.8 1 1.2 2 1.4 2.7zm18.3-5.8c-.4.6-1.1 1.6-2.3 2.4-1.1.8-2.2 1.1-2.9 1.2.6.5 1.5 1.3 2.2 2.4.7 1 1.1 2 1.4 2.7.4-.6 1.2-1.8 2.7-2.6 1-.6 1.9-.8 2.5-1-.6-.4-1.6-1.2-2.4-2.4-.7-1-1.1-2-1.2-2.7zm16.8 5c-.7-1.1-1-2.1-1.2-2.7-.4.6-1.1 1.6-2.3 2.4-1.1.8-2.2 1.1-2.9 1.2.6.5 1.5 1.3 2.2 2.4.7 1 1.1 2 1.4 2.7.4-.6 1.2-1.8 2.7-2.6 1-.6 1.9-.8 2.5-1-.6-.4-1.6-1.2-2.4-2.4zm14.4-.7c-.4.6-1.1 1.6-2.3 2.4-1.1.8-2.2 1.1-2.9 1.2.6.5 1.5 1.3 2.2 2.4.7 1 1.1 2 1.4 2.7.4-.6 1.2-1.8 2.7-2.6 1-.6 1.9-.8 2.5-1-.6-.4-1.6-1.2-2.4-2.4-.7-1-1.1-2-1.2-2.7zm15.6 2.2c-.4.6-1.1 1.6-2.3 2.4-1.1.8-2.2 1.1-2.9 1.2.6.5 1.5 1.3 2.2 2.4.7 1 1.1 2 1.4 2.7.4-.6 1.2-1.8 2.7-2.6 1-.6 1.9-.8 2.5-1-.6-.4-1.6-1.2-2.4-2.4-.7-1-1-2-1.2-2.7zm15.7 3.2c-.4.6-1.1 1.6-2.3 2.4-1.1.8-2.2 1.1-2.9 1.2.6.5 1.5 1.3 2.2 2.4.7 1 1.1 2 1.4 2.7.4-.6 1.2-1.8 2.7-2.6 1-.6 1.9-.8 2.5-1-.6-.4-1.6-1.2-2.4-2.4-.7-1-1-2-1.2-2.7zm15.6 2.2c-.4.6-1.1 1.6-2.3 2.4-1.1.8-2.2 1.1-2.9 1.2.6.5 1.5 1.3 2.2 2.4.7 1 1.1 2 1.4 2.7.4-.6 1.2-1.8 2.7-2.6 1-.6 1.9-.8 2.5-1-.6-.4-1.6-1.2-2.4-2.4-.8-1-1.1-2-1.2-2.7zm15.5 2c-.4.6-1.1 1.6-2.3 2.4-1.1.8-2.2 1.1-2.9 1.2.6.5 1.5 1.3 2.2 2.4.7 1 1.1 2 1.4 2.7.4-.6 1.2-1.8 2.7-2.6 1-.6 1.9-.8 2.5-1-.6-.4-1.6-1.2-2.4-2.4-.7-1-1-2-1.2-2.7zm14 11c.4-.6 1.2-1.8 2.7-2.6 1-.6 1.9-.8 2.5-1-.6-.4-1.6-1.2-2.4-2.4-.7-1.1-1-2.1-1.2-2.7-.4.6-1.1 1.6-2.3 2.4-1.1.8-2.2 1.1-2.9 1.2.6.5 1.5 1.3 2.2 2.4.8 1 1.2 2 1.4 2.7zm18.3-5.8c-.4.6-1.1 1.6-2.3 2.4-1.1.8-2.2 1.1-2.9 1.2.6.5 1.5 1.3 2.2 2.4.7 1 1.1 2 1.4 2.7.4-.6 1.2-1.8 2.7-2.6 1-.6 1.9-.8 2.5-1-.6-.4-1.6-1.2-2.4-2.4-.7-1-1-2-1.2-2.7zm16.8 5c-.7-1.1-1-2.1-1.2-2.7-.4.6-1.1 1.6-2.3 2.4-1.1.8-2.2 1.1-2.9 1.2.6.5 1.5 1.3 2.2 2.4.7 1 1.1 2 1.4 2.7.4-.6 1.2-1.8 2.7-2.6 1-.6 1.9-.8 2.5-1-.6-.4-1.6-1.2-2.4-2.4zm-170.8-6.4c-.6.1-1.4.3-2.3.8v-3.1c.8 1.2 1.7 1.9 2.3 2.3zm11.5 6.5c.4-.6 1.2-1.8 2.7-2.6 1-.6 1.9-.8 2.5-1-.6-.4-1.6-1.2-2.4-2.4-.7-1.1-1-2.1-1.2-2.7-.4.6-1.1 1.6-2.3 2.4-1.1.8-2.2 1.1-2.9 1.2.6.5 1.5 1.3 2.2 2.4.8 1 1.2 2 1.4 2.7zm15.6 2.3c.4-.6 1.2-1.8 2.7-2.6 1-.6 1.9-.8 2.5-1-.6-.4-1.6-1.2-2.4-2.4-.7-1.1-1-2.1-1.2-2.7-.4.6-1.1 1.6-2.3 2.4-1.1.8-2.2 1.1-2.9 1.2.6.5 1.5 1.3 2.2 2.4.8 1 1.2 1.9 1.4 2.7zm15.6 2c.4-.6 1.2-1.8 2.7-2.6 1-.6 1.9-.8 2.5-1-.6-.4-1.6-1.2-2.4-2.4-.7-1.1-1-2.1-1.2-2.7-.4.6-1.1 1.6-2.3 2.4-1.1.8-2.2 1.1-2.9 1.2.6.5 1.5 1.3 2.2 2.4.7 1 1.1 2 1.4 2.7zm15.6 2.2c.4-.6 1.2-1.8 2.7-2.6 1-.6 1.9-.8 2.5-1-.6-.4-1.6-1.2-2.4-2.4-.7-1.1-1-2.1-1.2-2.7-.4.6-1.1 1.6-2.3 2.4-1.1.8-2.2 1.1-2.9 1.2.6.5 1.5 1.3 2.2 2.4.7 1 1.1 1.9 1.4 2.7zm15.7 3.2c.4-.6 1.2-1.8 2.7-2.6 1-.6 1.9-.8 2.5-1-.6-.4-1.6-1.2-2.4-2.4-.7-1.1-1-2.1-1.2-2.7-.4.6-1.1 1.6-2.3 2.4-1.1.8-2.2 1.1-2.9 1.2.6.5 1.5 1.3 2.2 2.4.8 1 1.2 2 1.4 2.7zm15.7 2.3c.4-.6 1.2-1.8 2.7-2.6 1-.6 1.9-.8 2.5-1-.6-.4-1.6-1.2-2.4-2.4-.7-1.1-1-2.1-1.2-2.7-.4.6-1.1 1.6-2.3 2.4-1.1.8-2.2 1.1-2.9 1.2.6.5 1.5 1.3 2.2 2.4.7 1 1.1 1.9 1.4 2.7zm15.4 1.9c.4-.6 1.2-1.8 2.7-2.6 1-.6 1.9-.8 2.5-1-.6-.4-1.6-1.2-2.4-2.4-.7-1.1-1-2.1-1.2-2.7-.4.6-1.1 1.6-2.3 2.4-1.1.8-2.2 1.1-2.9 1.2.6.5 1.5 1.3 2.2 2.4.8 1 1.2 2 1.4 2.7zm20.8-1.3c-.6.1-1.5.4-2.5 1-.8.5-1.5 1.1-1.9 1.6-.5-.2-.9-.3-1.4-.5-.2-.4-.4-.8-.7-1.2-.8-1.1-1.6-1.9-2.2-2.4.7-.1 1.7-.4 2.9-1.2 1.2-.8 1.9-1.8 2.3-2.4.2.7.5 1.7 1.2 2.7.7 1.2 1.7 2 2.3 2.4zm11.5 6.5c.4-.6 1.2-1.8 2.7-2.6 1-.6 1.9-.8 2.5-1-.6-.4-1.6-1.2-2.4-2.4-.7-1.1-1-2.1-1.2-2.7-.4.6-1.1 1.6-2.3 2.4-1.1.8-2.2 1.1-2.9 1.2.6.5 1.5 1.3 2.2 2.4.8 1 1.2 2 1.4 2.7zm20.8-1.3c-.6.1-1.5.4-2.5 1-.7.4-1.2.9-1.6 1.3-.5 0-1 .1-1.5.1-.2-.5-.5-1-.9-1.5-.8-1.1-1.6-1.9-2.2-2.4.7-.1 1.8-.4 2.9-1.2 1.2-.8 1.9-1.8 2.3-2.4.2.7.5 1.7 1.2 2.7.7 1.2 1.7 2 2.3 2.4zm-155-5.9c-.6.1-1.5.4-2.5 1-1.5.8-2.3 2-2.7 2.6-.2-.5-.4-1-.7-1.7.1-1.6.1-3.2.2-4.8 1.1-.8 1.8-1.7 2.1-2.3.2.7.5 1.7 1.2 2.7.8 1.3 1.7 2.1 2.4 2.5zm13.1-2.3c-.4.6-1.1 1.6-2.3 2.4-1.1.8-2.2 1.1-2.9 1.2.6.5 1.5 1.3 2.2 2.4.7 1 1.1 2 1.4 2.7.4-.6 1.2-1.8 2.7-2.6 1-.6 1.9-.8 2.5-1-.6-.4-1.6-1.2-2.4-2.4-.8-1-1.1-2-1.2-2.7zm15.6 2.3c-.4.6-1.1 1.6-2.3 2.4-1.1.8-2.2 1.1-2.9 1.2.6.5 1.5 1.3 2.2 2.4.7 1 1.1 2 1.4 2.7.4-.6 1.2-1.8 2.7-2.6 1-.6 1.9-.8 2.5-1-.6-.4-1.6-1.2-2.4-2.4-.7-1-1.1-2.1-1.2-2.7zm15.5 2c-.4.6-1.1 1.6-2.3 2.4-1.1.8-2.2 1.1-2.9 1.2.6.5 1.5 1.3 2.2 2.4.7 1 1.1 2 1.4 2.7.4-.6 1.2-1.8 2.7-2.6 1-.6 1.9-.8 2.5-1-.6-.4-1.6-1.2-2.4-2.4-.7-1-1-2-1.2-2.7zm15.6 2.3c-.4.6-1.1 1.6-2.3 2.4-1.1.8-2.2 1.1-2.9 1.2.6.5 1.5 1.3 2.2 2.4.7 1 1.1 2 1.4 2.7.4-.6 1.2-1.8 2.7-2.6 1-.6 1.9-.8 2.5-1-.6-.4-1.6-1.2-2.4-2.4-.7-1.1-1-2.1-1.2-2.7zm15.7 3.1c-.4.6-1.1 1.6-2.3 2.4-1.1.8-2.2 1.1-2.9 1.2.6.5 1.5 1.3 2.2 2.4.7 1 1.1 2 1.4 2.7.4-.6 1.2-1.8 2.7-2.6 1-.6 1.9-.8 2.5-1-.6-.4-1.6-1.2-2.4-2.4-.7-1-1-2-1.2-2.7zm15.7 2.3c-.4.6-1.1 1.6-2.3 2.4-1.1.8-2.2 1.1-2.9 1.2.6.5 1.5 1.3 2.2 2.4.7 1 1.1 2 1.4 2.7.4-.6 1.2-1.8 2.7-2.6 1-.6 1.9-.8 2.5-1-.6-.4-1.6-1.2-2.4-2.4-.8-1-1.1-2-1.2-2.7zm13.4 4.3c-.3 1.2-.6 2.4-.9 3.7-.7-1.1-1.5-1.8-2.2-2.3.7-.1 1.7-.4 2.9-1.2l.2-.2zm-104 3.7c-.6.1-1.5.4-2.5 1-1.4.9-2.3 2-2.7 2.6-.2-.7-.7-1.7-1.3-2.7-.3-.4-.6-.8-.9-1.1 0-.6.1-1.2.1-1.7.4-.2.9-.4 1.4-.8 1.2-.8 1.9-1.8 2.3-2.4.2.7.5 1.7 1.2 2.7.8 1.2 1.8 2 2.4 2.4zm11.5 6.5c.4-.6 1.2-1.8 2.7-2.6 1-.6 1.9-.8 2.5-1-.6-.4-1.6-1.2-2.4-2.4-.7-1.1-1-2.1-1.2-2.7-.4.6-1.1 1.6-2.3 2.4-1.1.8-2.2 1.1-2.9 1.2.6.5 1.5 1.3 2.2 2.4.8 1 1.2 1.9 1.4 2.7zm15.6 2.2c.4-.6 1.2-1.8 2.7-2.6 1-.6 1.9-.8 2.5-1-.6-.4-1.6-1.2-2.4-2.4-.7-1.1-1-2.1-1.2-2.7-.4.6-1.1 1.6-2.3 2.4-1.1.8-2.2 1.1-2.9 1.2.6.5 1.5 1.3 2.2 2.4.8 1 1.2 2 1.4 2.7zm15.6 2.1c.4-.6 1.2-1.8 2.7-2.6 1-.6 1.9-.8 2.5-1-.6-.4-1.6-1.2-2.4-2.4-.7-1.1-1-2.1-1.2-2.7-.4.6-1.1 1.6-2.3 2.4-1.1.8-2.2 1.1-2.9 1.2.6.5 1.5 1.3 2.2 2.4.7 1 1.1 1.9 1.4 2.7zm15.6 2.2c.4-.6 1.2-1.8 2.7-2.6 1-.6 1.9-.8 2.5-1-.6-.4-1.6-1.2-2.4-2.4-.7-1.1-1-2.1-1.2-2.7-.4.6-1.1 1.6-2.3 2.4-1.1.8-2.2 1.1-2.9 1.2.6.5 1.5 1.3 2.2 2.4.7 1 1.1 2 1.4 2.7zm15.7 3.2c.4-.6 1.2-1.8 2.7-2.6 1-.6 1.9-.8 2.5-1-.6-.4-1.6-1.2-2.4-2.4-.7-1.1-1-2.1-1.2-2.7-.4.6-1.1 1.6-2.3 2.4-1.1.8-2.2 1.1-2.9 1.2.6.5 1.5 1.3 2.2 2.4.7 1 1.1 1.9 1.4 2.7zm15.6 2.2c.4-.6 1.2-1.8 2.7-2.6 1-.6 1.9-.8 2.5-1-.6-.4-1.6-1.2-2.4-2.4-.7-1.1-1-2.1-1.2-2.7-.4.6-1.1 1.6-2.3 2.4-1.1.8-2.2 1.1-2.9 1.2.6.5 1.5 1.3 2.2 2.4.8 1 1.2 2 1.4 2.7zm-90.9 3.4c.4-.6 1.2-1.8 2.7-2.6 1-.6 1.9-.8 2.5-1-.6-.4-1.6-1.2-2.4-2.4-.7-1.1-1-2.1-1.2-2.7-.4.6-1.1 1.6-2.3 2.4-1.1.8-2.2 1.1-2.9 1.2.6.5 1.5 1.3 2.2 2.4.8 1 1.2 1.9 1.4 2.7zm18.3-5.8c-.4.6-1.1 1.6-2.3 2.4-1.1.8-2.2 1.1-2.9 1.2.6.5 1.5 1.3 2.2 2.4.7 1 1.1 2 1.4 2.7.4-.6 1.2-1.8 2.7-2.6 1-.6 1.9-.8 2.5-1-.6-.4-1.6-1.2-2.4-2.4-.7-1.1-1.1-2.1-1.2-2.7zm15.6 2.2c-.4.6-1.1 1.6-2.3 2.4-1.1.8-2.2 1.1-2.9 1.2.6.5 1.5 1.3 2.2 2.4.7 1 1.1 2 1.4 2.7.4-.6 1.2-1.8 2.7-2.6 1-.6 1.9-.8 2.5-1-.6-.4-1.6-1.2-2.4-2.4-.7-1-1-2-1.2-2.7zm15.5 2.1c-.4.6-1.1 1.6-2.3 2.4-1.1.8-2.2 1.1-2.9 1.2.6.5 1.5 1.3 2.2 2.4.7 1 1.1 2 1.4 2.7.4-.6 1.2-1.8 2.7-2.6 1-.6 1.9-.8 2.5-1-.6-.4-1.6-1.2-2.4-2.4-.7-1.1-1-2.1-1.2-2.7zm15.7 2.2c-.4.6-1.1 1.6-2.3 2.4-1.1.8-2.2 1.1-2.9 1.2.6.5 1.5 1.3 2.2 2.4.7 1 1.1 2 1.4 2.7.4-.6 1.2-1.8 2.7-2.6 1-.6 1.9-.8 2.5-1-.6-.4-1.6-1.2-2.4-2.4-.8-1-1.1-2-1.2-2.7zm15.7 3.2c-.4.6-1.1 1.6-2.3 2.4-1.1.8-2.2 1.1-2.9 1.2.6.5 1.5 1.3 2.2 2.4.7 1 1.1 2 1.4 2.7.4-.6 1.2-1.8 2.7-2.6 1-.6 1.9-.8 2.5-1-.6-.4-1.6-1.2-2.4-2.4-.8-1.1-1.1-2.1-1.2-2.7zm16.1 3.7c-.6 2.3-1.2 4.5-1.8 6.8-.1.2-.2.3-.3.4-.2-.7-.7-1.7-1.4-2.7-.8-1.1-1.6-1.9-2.2-2.4.6-.1 1.7-.4 2.9-1.2 1.2-.8 1.9-1.8 2.3-2.4.1.4.2.9.5 1.5zm-95.2 10.8c.4-.6 1.2-1.8 2.7-2.6 1-.6 1.9-.8 2.5-1-.6-.4-1.6-1.2-2.4-2.4-.7-1.1-1-2.1-1.2-2.7-.4.6-1.1 1.6-2.3 2.4-1.1.8-2.2 1.1-2.9 1.2.6.5 1.5 1.3 2.2 2.4.8 1 1.2 1.9 1.4 2.7zm15.6 2.2c.4-.6 1.2-1.8 2.7-2.6 1-.6 1.9-.8 2.5-1-.6-.4-1.6-1.2-2.4-2.4-.7-1.1-1-2.1-1.2-2.7-.4.6-1.1 1.6-2.3 2.4-1.1.8-2.2 1.1-2.9 1.2.6.5 1.5 1.3 2.2 2.4.8 1 1.2 2 1.4 2.7zm15.6 2.1c.4-.6 1.2-1.8 2.7-2.6 1-.6 1.9-.8 2.5-1-.6-.4-1.6-1.2-2.4-2.4-.7-1.1-1-2.1-1.2-2.7-.4.6-1.1 1.6-2.3 2.4-1.1.8-2.2 1.1-2.9 1.2.6.5 1.5 1.3 2.2 2.4.7 1 1.1 1.9 1.4 2.7zm15.6 2.2c.4-.6 1.2-1.8 2.7-2.6 1-.6 1.9-.8 2.5-1-.6-.4-1.6-1.2-2.4-2.4-.7-1.1-1-2.1-1.2-2.7-.4.6-1.1 1.6-2.3 2.4-1.1.8-2.2 1.1-2.9 1.2.6.5 1.5 1.3 2.2 2.4.7 1 1.1 2 1.4 2.7zm15.7 3.2c.4-.6 1.2-1.8 2.7-2.6 1-.6 1.9-.8 2.5-1-.6-.4-1.6-1.2-2.4-2.4-.7-1.1-1-2.1-1.2-2.7-.4.6-1.1 1.6-2.3 2.4-1.1.8-2.2 1.1-2.9 1.2.6.5 1.5 1.3 2.2 2.4.7 1 1.1 1.9 1.4 2.7zm15.6 2.2c.4-.6 1.2-1.8 2.7-2.6 1-.6 1.9-.8 2.5-1-.6-.4-1.6-1.2-2.4-2.4-.7-1.1-1-2.1-1.2-2.7-.4.6-1.1 1.6-2.3 2.4-1.1.8-2.2 1.1-2.9 1.2.6.5 1.5 1.3 2.2 2.4.8 1 1.2 2 1.4 2.7zm-86.4 0c-.6.1-1.5.4-2.5 1-1.2.7-1.9 1.5-2.4 2.2l.9-7.8c.2-.2.3-.4.4-.5.2.7.5 1.7 1.2 2.7.8 1.2 1.7 2 2.4 2.4zm14.2.5c-.7-1.1-1-2.1-1.2-2.7-.4.6-1.1 1.6-2.3 2.4-1.1.8-2.2 1.1-2.9 1.2.6.5 1.5 1.3 2.2 2.4.7 1 1.1 2 1.4 2.7.4-.6 1.2-1.8 2.7-2.6 1-.6 1.9-.8 2.5-1-.6-.4-1.5-1.2-2.4-2.4zm18.1 4.7c-.6.1-1.5.4-2.5.9-.6.4-1.1.7-1.5 1.1-.6 0-1.2.1-1.8.1-.2-.4-.5-.8-.8-1.3-.8-1.1-1.6-1.9-2.2-2.5.7-.1 1.7-.4 2.9-1.2 1.2-.8 1.9-1.8 2.3-2.4.2.7.5 1.7 1.2 2.7.8 1.4 1.8 2.1 2.4 2.6zm14.5 1.2l-6.6.3-1.1-1.1c.6-.1 1.7-.4 2.9-1.2 1.2-.8 1.9-1.8 2.3-2.4.2.7.5 1.7 1.2 2.7.3.8.8 1.3 1.3 1.7zm13.6-.6c-.6 0-1.2.1-1.8.1.6-.6 1-1.2 1.3-1.6.1.4.2.9.5 1.5z" opacity=".2"/><path class="st16" d="M994.1 647.4c-4.5 18.1-9.4 37.2-14.6 57.1l-12.5-3.4-26.7-82.5c-.1 0 57.6 30.4 53.8 28.8zm15.6-63.9v.3c0-.1-.1-.2-.1-.2-.4 1.7-.8 3.3-1.2 5 0 .1 0 .2-.1.3-1.7 7.1-3.4 14.4-5.2 21.9 0 .2-.1.3-.1.5-.3 1.4-.7 2.8-1 4.3l-46.1-12.4 33.9-30.1 19.9 10.4zm49.2 59c-8.9-26.3-18.2-53-28-80.1-9.9-27.6-20-54.7-30.1-81.2.3.1.6.2.9.4 3.4 2 8.3 5.2 13.5 10 18.2 16.5 24.7 37.3 29.6 56.8 12.8 50.1 20.1 79.1 14.1 94.1zm-81.4-165.6c-8.2 2.4-16.2 4.2-16.2 4.2l-4-27.9c4.4-1.4 7.7-3.2 9.9-4.5 5.2 3.5 6.7 6.8 7.2 9.3.7 3.6-1.1 6 .7 9.9.6 1.4 1.2 2.7 2 5 .4 1.1.6 2.4.4 4z"/><linearGradient id="SVGID_3_" gradientUnits="userSpaceOnUse" x1="884.256" y1="523.27" x2="941.792" y2="523.27"><stop offset="0" stop-color="#5a142a" stop-opacity=".2"/><stop offset="1" stop-color="#fc860a" stop-opacity=".2"/></linearGradient><path d="M941.8 515.3c0 14.2-34.9 33.8-57.5 45.1.9-1.9 2-4.4 3.6-7.9.4-.8.7-1.6 1.1-2.5 1.7-3.7 3.8-8.2 6.3-14 .4-1 .9-2 1.4-3.1.3-.7.7-1.5 1-2.2 4.5-10 6.8-15.3 11.2-23 6.7-11.6 10-17.5 14.8-21 0-.3-.1-.5-.1-.8 9.5 9.1 18.2 19.9 18.2 29.4z" opacity=".32" fill="url(#SVGID_3_)"/></g><g id="head_general_1_"><g id="hair_1_"><path class="st5" d="M994.2 367.4l-8.1 10-8.6-6.5-11.3-8.5 8-7 12 7.2z"/><path class="st18" d="M994.2 367.4l-8.1 10-8.6-6.5 8.7-8.3z"/><path class="st24" d="M1013.2 364.3c-9.4 8.2-22.5 5.6-30.2.6-.8-.5-11.3-7.6-12.1-20.4 0-.6-.1-1.2-.1-1.8.1-13.2 10.6-25.2 19.2-25.9 5-.4 8.6 2.2 8.6 2.2 2.4 1.7 2.8 3.5 4.2 5.6.3.4.5.8.8 1.1 4.6 5.7 11 4.8 14.9 9.3 5.3 6 4.2 21.1-5.3 29.3zm-33.7 63c-4 3.3-21.4 16.6-22.1 17-6.6-9.7-13.2-19.5-19.8-29.2l-1.1-1.7-12.5-19.7-.7-1.1c-1.3-1.8-2.6-3.7-4-5.9-1-1.7-2-3.4-2.8-5-.4-.9-1.6-4.3-.7-8.3v-.2c.1-.5.3-1 .5-1.5 0-.1.1-.3.1-.4 2.8-6.8 10.3-8.3 10.8-8.3.4-1 1.1-2.5 2.3-4 4.6-5.8 11.9-6.7 15.1-7.1 4.5-.6 11.1.4 17.9 3.2 2.6 1 5.2 2.3 7.8 3.8 3.9 2.3 7.6 5.2 10.9 8.6 2.4 2.5 4.5 5.3 6.2 8.4 1.8 3.3 3.3 6.9 4.1 10.9 4.6 21.2-10.1 38.3-12 40.5z"/><linearGradient id="SVGID_4_" gradientUnits="userSpaceOnUse" x1="915.515" y1="367.816" x2="962.593" y2="367.816"><stop offset="0" stop-color="#fff"/><stop offset="1" stop-color="#9375a1"/></linearGradient><path d="M962.6 354.9c-1.5 0-20.1-.2-29.3 14.1-3.7 5.7-4.4 11.5-4.5 15-1.7-.4-3.4-.9-5.3-1.2-2.4-.5-4.7-.9-6.9-1.1-.4-.9-1.6-4.3-.7-8.3v-.2c.1-.5.3-1 .5-1.5 0-.1.1-.3.1-.4 2.8-6.8 10.3-8.3 10.8-8.3.4-1 1.1-2.5 2.3-4 4.6-5.8 11.9-6.7 15.1-7.1 4.5-.7 11.1.3 17.9 3z" opacity=".05" fill="url(#SVGID_4_)"/><linearGradient id="SVGID_5_" gradientUnits="userSpaceOnUse" x1="970.851" y1="329.667" x2="1003.623" y2="329.667"><stop offset="0" stop-color="#fff"/><stop offset="1" stop-color="#9375a1"/></linearGradient><path d="M1003.6 325.6c-2.7-.5-5.8-1-9.5-1.7-8.4-1.5-17.8 10.3-23.3 18.6.1-13.2 10.6-25.2 19.2-25.9 5-.4 8.6 2.2 8.6 2.2 2.4 1.7 2.8 3.5 4.2 5.6.3.5.5.9.8 1.2z" opacity=".05" fill="url(#SVGID_5_)"/></g><path class="st14" d="M975.6 428.8c-1.2 1.5-2.9 3.5-5 5.7-2.1 2.3-4.8 4.9-7.9 7.6-1.6 1.4-3.3 2.9-5.1 4.3-13.7 11.1-31.9 21.5-44.4 14.9-7.6-4.1-10.6-13.3-11.8-16.9-1.1-3.4-2.5-9.4.1-23.2 1.5-8 3.3-17.8 8.7-28.8l.9-1.8c.8-1.5 1.6-3 2.6-4.6.3-.6 1.3-2.1 2.7-4.3l.1-.1c.3.1.7.1 1 .2 5.1.8 10.5 2 16.1 3.5 13.6 3.6 25.1 8.5 34.5 13.3-1.7 2.6-3.9 5.7-5.7 11.1-1 3-1.5 5.6-.8 8.5.1.4.4 1.8 1.4 3.4.3.6.8 1.3 1.3 1.9 1.5 1.8 3.2 2.9 4.9 3.7 2.9 1.4 5.6 1.6 6.4 1.6z"/><g id="eyes_2_"><ellipse transform="rotate(-71.258 939.334 412.738)" class="st27" cx="939.3" cy="412.8" rx="2.8" ry="2.8"/><ellipse transform="rotate(-71.258 913.767 405.125)" class="st27" cx="913.7" cy="405.1" rx="2.8" ry="2.8"/></g><path id="nose_2_" d="M924.5 406.5c-2.3 2.4-5.2 5.5-8.5 9.2-4.7 5.1-6.6 7.3-6 9.8.3 1.5 1.4 2.5 2.8 3.8 2.3 2.2 4.8 3.2 6.3 3.7 1.9-8.9 3.6-17.7 5.4-26.5z" fill="#c0846f"/><path class="st27" d="M921.4 446.5c-4.2 0-7-2.4-8.1-3.4-.2-.2-.2-.6 0-.8.2-.2.6-.2.8 0 1 1 3.8 3.3 7.9 3.1 4.7-.3 8-3.8 8.9-4.9.2-.2.6-.3.8-.1.2.2.3.6.1.8-1 1.2-4.5 5-9.7 5.3-.2-.1-.4 0-.7 0z"/><g id="brows_1_"><path id="brow_1_" d="M936.8 397.2c.1-.6 4.8-.6 9.1 1.4s7.5 5.4 7.1 5.9c-.2.3-1.6-.5-9.1-3.8-5.9-2.7-7.2-3.1-7.1-3.5z"/><path id="brow_2_" d="M908.2 392c-.1-.6 4-2 8.3-1.6 4.3.4 8 2.6 7.8 3.2-.1.4-1.6.1-8.9-.7-6-.6-7.2-.6-7.2-.9z"/></g><g id="ear_1_"><path class="st14" d="M980.1 434.6c-1.5 6.2-7.6 10.1-13.8 8.8-.1 0-.2 0-.4-.1-1.1-.3-2.2-.7-3.2-1.3-2.8-1.7-4.8-4.4-5.5-7.6-.4-1.7-.4-3.5.1-5.3 0-.2.1-.4.2-.6.9-3 2.9-5.5 5.5-6.9 2.5-1.4 5.5-1.9 8.5-1.2 1.9.4 3.5 1.3 4.9 2.5.9.8 1.7 1.7 2.3 2.7.3.5.6 1.1.9 1.7.8 2.2 1.1 4.8.5 7.3z"/><linearGradient id="SVGID_6_" gradientUnits="userSpaceOnUse" x1="956.978" y1="427.274" x2="976.374" y2="427.274"><stop offset="0" stop-color="#e2c8c0"/><stop offset="1" stop-color="#dd8093" stop-opacity=".4"/></linearGradient><path d="M976.4 422.9l-19.1 11.5c-.4-1.7-.4-3.5.1-5.3 0-.2.1-.4.2-.6 1.8-6 7.9-9.6 14-8.1 1.7.4 3.4 1.3 4.8 2.5z" opacity=".28" fill="url(#SVGID_6_)"/></g></g><g id="hand_front_1_"><path class="st14" d="M952.2 605.6c-3.1 3.8-6.2 7.5-9.4 11.3-1.9-.6-4.5-1.6-7.6-2.8-2.4-1-4.3-1.8-5.9-2.7-5.3-2.7-7.9-5-18.2-10.5-2.2-1.2-11.1-5.9-10.8-8.2.1-.8.5-1.1.5-1.1.8-.6 2.2.2 2.8.5 1.5.8 7.6 4 16.6 8.7l.1-.1c-4.2-2.7-10.5-6.9-16.6-11-1.3-.9-4-2.7-3.7-4.2.1-.3.3-.7.6-.9 1.1-.8 3.2.4 3.9.8 2.4 1.4 9.2 5.2 18.7 10.6.1-.1.2-.3.3-.4-3.9-2.8-10.9-7.9-17.5-12.9-1.3-.9-3.9-2.9-3.5-4.4 0 0 .1-.5.7-.9.9-.6 4.8.6 23.6 14.6l.4-.4c-8.8-8.2-16.3-14.2-17.2-15.4-.7-.8-1.1-1.7-.9-2.4 0 0 .2-.5.7-.8 1.5-.8 5.3 2.5 5.3 2.5 2.9 2.3 7.5 5.8 13 10.5 7 5.9 11.4 10 12.3 9.2.8-.7-1.7-5.4-1.9-5.7-1.4-2.5-2.2-2.7-2.9-4.5-1.2-2.8-1.1-6.6-.1-7 1.5-.6 4.9 5.3 8 10.6 2.3 3.8 4.7 8.4 7.1 13.7.6 1 1.1 2.2 1.6 3.3z"/><path class="st18" d="M952.2 605.6c-3.1 3.8-6.2 7.5-9.4 11.3-1.9-.6-4.5-1.6-7.6-2.8-2.4-1-4.3-1.8-5.9-2.7 10.3-1.4 17.6-6.2 21.3-9.2.6 1.1 1.1 2.3 1.6 3.4z"/></g><g id="leg_back"><path class="st30" d="M959.1 787.2c-24.1 17.5-54.8 3.8-165.2-13-28.3-4.3-51.7-7.1-67.5-8.8-.1.2-.4.6-.6 1-5.8 10.3-6.2 20.3-6.3 21.8-1.6 22.7-42.8 64.8-42.8 64.8-17.4 17.9-40.5 47.7-64.6 100.1 0 .1-.1.2-.1.2-.8 1.7-1.6 3.4-2.3 5.2-6.8-6.3-13.6-12.6-20.4-19v-.1c2.1-4.6 4.1-9.1 6-13.3 16.5-36.6 26-58.6 31.7-72.4 2.2-5.4 9.8-23.5 20.9-47.5 2-4.3 4-8.5 6.2-13.1 25.2-52.3 37.8-78.5 54.1-88.8 18.8-11.9 45.2-11.7 98.2-11.4 26.8.2 49.1 1.9 64.9 3.6.2-.4.4-.9.6-1.3 1.2-2.7 2.5-5.5 3.7-8.2.7-1.5 1.4-3.1 2.1-4.6 35.1 2.7 70.3 5.4 105.4 8.1.2 2.7.4 5.3.6 7.8.2 3.1.4 6 .4 8.9 1.9 53.8-14.7 72.5-25 80z"/><path class="st14" d="M612 953.1c0 .1-.1.2-.1.2-1 2.2-2 4.4-2.9 6.7-.8 1.8-1.6 3.5-2.4 5.3l-20.7-18 3.3-7.8v-.1c.5-1.2 1.1-2.3 1.6-3.5 1.4-3.1 2.8-6.1 4.1-9l2.2 2.1c4.9 8.1 9.9 16.1 14.9 24.1z"/><path class="st30" d="M595.6 918.7l22.5 27-4 11.2-24-27.2z"/><path class="st18" d="M612 953.1c0 .1-.1.2-.1.2-1 2.2-2 4.4-2.9 6.7l-18.2-24c1.4-3.1 2.8-6.1 4.1-9l2.2 2.1c4.9 8 9.9 16 14.9 24z"/></g><g id="leg_front"><path class="st31" d="M756.8 782c4.8 13.8 10.4 34.6 10.5 60.2.1 20-3.1 32.1-5.8 50.7-2.6 18.6-4.8 45.1-2.3 78.4l.6 6.6c-8.1 1.7-16.2 3.4-24.4 5.1-.2-.8-.4-2.1-.8-4-.5-2.4-1.1-5.7-1.9-9.7-6.7-33.8-23.8-120.5-35.8-192-1.7-9.9-2.2-25.7 3-37.3 2-4.4 4.8-8.3 8.7-10.9 9.1-6.3 25.2-6.5 37-3.7 6.2 1.5 10.7 3.7 11.8 4.3 12 6 30.6 14.4 30.6 14.4 14 6.3 52.5 23.7 104.2 46.9-45.1-3-90.3-6-135.4-9z"/><path class="st14" d="M760.8 991.2c-7.8.6-15.5 1.2-23.3 1.9-1.4-6.8-2.8-13.7-4.1-20.5-.5-2.5-1-5.1-1.5-7.6 9.2 2.6 18.4 5.2 27.5 7.8.1 1 .2 2 .2 2.9.4 5.2.8 10.4 1.2 15.5z"/><path class="st30" d="M728.9 956.9c4.2 1.9 9.9 4 16.9 5.1 5.5.9 10.5 1.1 14.4.9.1 3.5.2 7 .2 10.6-9.7-1.5-19.5-2.9-29.2-4.4-.7-4-1.5-8.1-2.3-12.2z"/><path class="st18" d="M759.6 975.7c-5.2-.6-19.6-2.3-26.2-3.1-.5-2.5-1-5.1-1.5-7.6 9.2 2.6 18.4 5.2 27.5 7.8 0 .9.1 1.9.2 2.9z"/><path d="M756.8 782c4.8 13.8 10.4 34.6 10.5 60.2.1 20-3.1 32.1-5.8 50.7-2.6 18.6-4.8 45.1-2.3 78.4l-4.2.2s-19.8-173.4-23.2-192.7c-3.4-19.2 38-14.1 54.9-17.3 7.6-1.4 5.7-9.3 1.3-17.5 14.8 6.9 29.8 13.7 44.9 20.5 19.9 9 39.8 17.8 59.4 26.3-45.1-2.8-90.3-5.8-135.5-8.8z" opacity=".09" fill="#2a303d"/><linearGradient id="SVGID_7_" gradientUnits="userSpaceOnUse" x1="695.758" y1="855.097" x2="739.802" y2="855.097"><stop offset="0" stop-color="#fff"/><stop offset="1" stop-color="#9375a1"/></linearGradient><path d="M738.1 970.2c-1.8-.3-3.6-.5-5.4-.8-6.7-33.8-23.8-120.5-35.8-192-1.7-9.9-2.2-25.7 3-37.3 5 11 9.7 22.6 14 34.8 25.7 72.8 28.6 141.3 24.2 195.3z" opacity=".11" fill="url(#SVGID_7_)"/></g><g id="shoes_1_"><path class="st24" d="M608.2 962.6c-.1.5-.3 1-.4 1.5-1.6 6.2-3.2 12.3-4.9 18.5-1.9.6-4 1.3-6.4 2.1l-1.1-5.6-8 8.5c-15.4 4.6-34.7 9.7-48.3 10.5-4.1.2-8.8.2-10.3-2.4-1.5-2.5.1-7.1 3.3-10.8 1.3-1.5 2.9-2.9 4.7-3.9 5.5-3.1 8.8-.3 16.7-2.9 4.6-1.5 7.4-3.8 11.4-7 3.1-2.5 7.4-6.4 12-11.9 2.5-3 5.2-6.5 7.8-10.6.5-.7 1-1.5 1.5-2.3 7.4 5.4 14.7 10.9 22 16.3z"/><path class="st24" d="M607.8 964.1l-23-15.7c-1.4-.9-1.8-2.9-.8-4.3.9-1.4 2.9-1.8 4.3-.8l23 15.7c1.4.9 1.8 2.9.8 4.3s-2.9 1.8-4.3.8zm159.6 38l-6.9-2.2 3.8 9.3c-.8 1.8-1.8 3.6-2.8 5.5-4.7 8.4-13.7 24.2-31 31.9-2 .9-16.1 7-19.9 2.3-.7-.8-1-1.9-1-3.2-.1-3.2 1.6-7.3 4.1-10 3.5-4 7.9-4.6 10.2-5.4 5.3-2.1 10.8-10.3 11.4-37.3 0-2.1.1-4.3.1-6.6v-4c8.2-.4 16.5-.8 24.7-1.2l2.9 3.7 7.2 9.3c-.8 2.3-1.7 5-2.8 7.9z"/><path class="st24" d="M762.1 985.2l-27.9 1.3c-1.7.1-3.1-1.2-3.2-2.9-.1-1.7 1.2-3.1 2.9-3.2l27.9-1.3c1.7-.1 3.1 1.2 3.2 2.9.1 1.6-1.3 3.1-2.9 3.2z"/><linearGradient id="SVGID_8_" gradientUnits="userSpaceOnUse" x1="532.233" y1="973.148" x2="577.096" y2="973.148"><stop offset="0" stop-color="#fff"/><stop offset="1" stop-color="#9375a1"/></linearGradient><path d="M577.1 959.1c-3.5 8.5-9.2 18.9-17.3 24-10.5 6.6-21.8 3.9-27.5 1.7 1.3-1.5 2.9-2.9 4.7-3.9 5.5-3.1 8.8-.3 16.7-2.9 4.6-1.5 7.4-3.8 11.4-7 3.1-2.6 7.3-6.4 12-11.9z" opacity=".05" fill="url(#SVGID_8_)"/><linearGradient id="SVGID_9_" gradientUnits="userSpaceOnUse" x1="709.631" y1="1019.387" x2="736.754" y2="1019.387"><stop offset="0" stop-color="#fff"/><stop offset="1" stop-color="#9375a1"/></linearGradient><path d="M715.3 1045.3c-2.1.3-4 .5-5.7.4-.1-3.2 1.6-7.3 4.1-10 3.5-4 7.9-4.6 10.2-5.4 5.3-2.1 10.8-10.3 11.4-37.3 2.5 1.6 4.6 48.6-20 52.3z" opacity=".05" fill="url(#SVGID_9_)"/></g></g><g id="table"><path d="M967.2 642.3v14.2c0 2.4-1.6 4.3-3.6 4.3h-25.7v4.9c.1 11.4.1 28.1.1 49.6v150c-.1 81.5-.2 163.8-.3 199.5 5.3 1.6 9.2 6.5 9.2 12.4 0 7.1-5.8 12.9-12.9 12.9-7.1 0-12.9-5.8-12.9-12.9 0-6.2 4.4-11.4 10.2-12.6.3-130 0-346.8 0-403.7H434.4v10.9c0 11 .1 25.6.1 43.6v150c-.1 81.5-.2 163.8-.3 199.5 5.3 1.6 9.2 6.5 9.2 12.4 0 7.1-5.8 12.9-12.9 12.9-7.1 0-12.9-5.8-12.9-12.9 0-6.2 4.4-11.4 10.2-12.6.2-122.5.1-322.2 0-392.4V661h-19.5c-2 0-3.6-1.9-3.6-4.3v-14.2c0-2.4 1.6-4.3 3.6-4.3h555.2c2-.2 3.7 1.7 3.7 4.1z" fill="#f2be54"/><linearGradient id="SVGID_10_" gradientUnits="userSpaceOnUse" x1="648.339" y1="864.024" x2="967.165" y2="864.024"><stop offset="0" stop-color="#fc860a"/><stop offset="1" stop-color="#f2be54"/></linearGradient><path d="M967.2 642.3v14.2c0 2.4-1.6 4.3-3.6 4.3h-25.7v4.9c.1 11.4.1 28.1.1 49.6v150c-.1 81.5-.2 163.8-.3 199.5 5.3 1.6 9.2 6.5 9.2 12.4 0 7.1-5.8 12.9-12.9 12.9-7.1 0-12.9-5.8-12.9-12.9 0-6.2 4.4-11.4 10.2-12.6.3-130 0-346.8 0-403.7h-283l7-22.8h308.2c2-.1 3.7 1.8 3.7 4.2z" opacity=".3" fill="url(#SVGID_10_)"/><path class="st16" d="M434.5 665.7v6l-6.7.4v-11.3h-8.5l1-22.8h29.5c1.3 7.5 2.9 16.3 4.1 22.8h-19.3c-.1 1.5-.1 3.1-.1 4.9z"/></g><g id="man"><g id="hand_back"><path class="st38" d="M612.4 634.5c-.4.8-1.4 1.4-2.3 1.8-.9.4-1.7.7-1.7.7-1.1.7-4 1-4.4 1-6.2.5-10.7-2.1-18-5.9-3.2-1.6-8-4-14-6.9-1.7.4-4.1 1.1-7 2.2-3.5 1.4-6.2 2.8-8.4 4.2 9.9 0 20.3.3 20.7 1.6l.3 1.2c.4 2-.2 3.5-2.2 3.5s-25.5.7-33.3.9c-.8.1-1.6.1-2.4.1h-.1c-2-.1-4.3-.4-6.9-1.3-1.6-.5-3.3-1.2-5.2-2.1-.7-.3-1.5-.7-2.2-1.1-25.7-31.5-45.1-54.1-59.2-70.2-9.4-10.7-20.5-23.2-29.1-43.6-2-4.8-3.6-9.4-5-13.8-2.9-9.7-4.4-18.3-5.2-24.9.6-.3 1.1-.6 1.7-.9 7.2-4.1 14.4-8.2 21.5-12.2 4.7-2.7 9.3-5.3 14-7.9.4 2.6.8 5.3 1.3 7.9l1.8 11.7 4.5 28.2c24.8 37.6 49.5 75.1 74.2 112.7 5-1.4 9.4-2.5 12.9-3.2 1.1-.2 2.2-.4 3.1-.6 4.1-.8 6.6-1.2 8.9-.9.6.1 14.5-.1 16.1 1.2.5.4 2.1 1.9 4 3.7 1.5 1.4 3.1 3 4.5 4.5 9 3.9 17.5 7.7 17.1 8.4z"/><path class="st16" d="M527.5 635.6c-.7-.3-1.5-.7-2.2-1.1-25.7-31.5-45.1-54.1-59.2-70.2-9.4-10.7-20.5-23.2-29.1-43.6-2-4.8-3.6-9.4-5-13.8l-3.5-25.9c7.2-4.1 14.4-8.2 21.5-12.2h15.2l1.8 11.7-19.5 12.6s-4.9 27.3 8 47.5c11.7 18.2 62.1 82.4 72 95zm47.9 2.4c-2 0-25.5.7-33.3.9-.8.1-1.6.1-2.4.1h-.1c-2-.1-4.3-.4-6.9-1.3l44.9-3.2c.4 2-.2 3.5-2.2 3.5z"/><linearGradient id="SVGID_11_" gradientUnits="userSpaceOnUse" x1="561.855" y1="619.266" x2="590.859" y2="619.266"><stop offset=".002" stop-color="#ff931e"/><stop offset="1" stop-color="#fff"/></linearGradient><path d="M590.9 621.7c-12.1.8-22.3-1.5-29-4 4.1-.8 6.6-1.2 8.9-.9.6.1 14.5-.1 16.1 1.2.5.4 2.1 1.9 4 3.7z" opacity=".13" fill="url(#SVGID_11_)"/></g><g id="shoes"><path class="st24" d="M410.2 1113.6c-33.6-.3-67.3-.6-100.9-1 .2-1.9.5-3.9.7-5.8 1-8.1 2-16.2 3-24.4l.4-2.2v-.3c.7-2.4 1.4-4.7 2.1-7.1 13.5 1 26.9 2 40.4 3l1.6 7.7.2 1.1.9 4.3v.2c.6.4 1.2.7 1.8 1 1.7.9 3.4 1.7 5 2.4.8.3 1.6.7 2.4.9 6.1 2.2 11 2.4 14.7 2.2 2.3-.2 5.8-.7 11.1-.4 6 .4 10.2.7 13.3 3.6 2.6 2.5 3.5 6 3.6 9 .3 2.7-.2 5.1-.3 5.8z"/><path class="st5" d="M410.6 1107.7c.1 2.8-.3 5.2-.4 5.9-33.6-.3-67.3-.6-100.9-1 .2-1.9.5-3.9.7-5.8 16.9.3 75.7.7 100.6.9zm-50-17.7l-9.5 4.2c-.1 0-.2.1-.3.1-.4.1-.8-.2-1-.5-.2-.5 0-1 .5-1.2l8.4-3.7v.2c.6.3 1.3.6 1.9.9zm7.4 3.3l-8.1 3.6c-.1 0-.2.1-.3.1-.4.1-.8-.2-1-.5-.2-.5 0-1 .5-1.2l6.4-2.9c.9.3 1.7.6 2.5.9z"/><path class="st24" d="M338.2 1110.6c0 .4 0 .8-.1 1.2-.3 2-1 3.6-1.7 4.7-33.5-4.1-67-8.1-100.5-12.2l2-6.8 7.9-27.5 41.3 4 .9 12.6.1 1c.4.2.8.4 1.3.6 1.8.8 4.1 1.6 6.7 2.4 1.1.3 2.2.6 3.4.9 2 .5 4.2.9 6.6 1.2 9.9 1.3 12.9-.7 19.2 2.1 5.8 2.4 13.1 8.5 12.9 15.8z"/><path class="st5" d="M338.1 1111.8c-.3 2-1 3.6-1.7 4.7-33.5-4.1-67-8.1-100.5-12.2l2-6.8c16.7 2.4 75.9 10.8 100.2 14.3zm-48.8-23.9l-10.4 3h-.3c-.4 0-.8-.3-.9-.7-.1-.5.1-1 .6-1.1l9.5-2.8.1 1c.5.3.9.5 1.4.6zm10.1 3.4l-12.1 3.5h-.3c-.4 0-.8-.3-.9-.7-.1-.5.1-1 .6-1.1l9.2-2.7c1.1.4 2.3.7 3.5 1z"/></g><g id="legs"><g id="back_leg"><path class="st15" d="M450.5 861.9c-3.8 18.3-7.7 27.6-39.2 99.4-7.2 16.4-16.4 37.3-27.2 61.8-7.8 17.7-16.5 37.4-25.9 58.7-.2.5-.5 1-.7 1.6-.1.2-.1.3-.2.5-9.8-.8-19.5-1.6-29.3-2.4l-14.7-1.2c0-.1.1-.2.1-.3.7-2.4 1.4-4.7 2.1-7.1 22.1-74.4 44.3-148.8 66.4-223.2-17.5-69.4-35.1-138.8-52.6-208.2l-3.6-14.4 99.9-15.9c1.2 4.7 2.4 9.9 3.7 15.4 2.3 10.1 4.8 21.5 7.3 34.2 2.8 14.6 5.6 30.7 8.2 48.3 9.9 68 15.4 105.8 5.7 152.8z"/><path class="st16" d="M384.4 693.5c-7 17.4 2.7 33.6 10.8 58.5 13.1 40.3 12.1 73.5 11 107.6-1.2 40.1-8.9 45.1-18.6 129.2-1.7 14.4-2.8 26.3-3.6 34.3-7.8 17.7-16.5 37.4-25.9 58.7-15-.5-29.9-1.1-44.9-1.6 0-.1.1-.2.1-.3.7-2.4 1.4-4.7 2.1-7.1 22.1-74.4 44.3-148.8 66.4-223.2-17.5-69.4-35.1-138.8-52.6-208.2l100-14.8c2.3 10.1 4.8 21.5 7.3 34.2-19.6 4.3-44.1 13-52.1 32.7z"/></g><g id="front_leg"><path class="st20" d="M397.4 573.3c-1 4.8-1.9 9.6-2.9 14.3-19.5 96-39.6 191.9-60.4 287.7-15.1 69.7-30.5 139.2-46.3 208.7-2.5 0-5.1.1-7.6.1-12.9.2-25.8.4-38.7.7 2.5-78.7 5.8-145.2 8.9-198.7 1.2-20.5 2.4-39.1 3.5-55.7 2.1-31.2 5.5-79.4 7.9-143 .5-14.3 1-29.5 1.4-45.3.2-8.9.4-18 .6-27.3.1-3.9.1-7.8.2-11.5.3-21 .4-38.8.4-52.3 26.8 4.5 53.7 9 80.5 13.6 2.7.5 5.4.9 8.2 1.4 2.7.5 5.4.9 8.2 1.4 11.9 1.9 24 3.9 36.1 5.9z"/><path class="st16" d="M394.5 587.7c-19.5 96-39.6 191.9-60.4 287.7-15.1 69.6-30.5 139.1-46.3 208.6-2.5 0-5.1.1-7.6.1 2.7-150.9 8.8-249.1 18.9-306.8 2.6-14.9 10-53-11.2-75.4-7.5-7.9-16.9-12.2-26.1-14.6.5-14.3 1-29.5 1.4-45.3 20.9-35.8 53.6-78.8 89.8-76.1 2.7.2 5.4.6 8.2 1.4l33.3 20.4z"/></g></g><g id="shirt"><path class="st5" d="M476.8 462.1c-2.1 4.2-4.2 8.4-6.4 12.7l-26.4 5.7c-2.8 18.7-5.4 34.5-7.4 46.1-.2 6.7-.3 13.5-.4 20.4-.1 9.6 0 19.4.2 29.4.5 24.7 1.9 48.1 3.9 70.1-10.5 3.6-22.5 7.1-35.8 9.9-15.9 3.4-30.6 5.1-43.3 5.9 1.6-6.8 3.1-13.6 4.7-20.5-5.6 7.7-11.2 15.5-16.8 23.3-25.1-3.5-50.2-6.9-75.4-10.2-11.8-1.6-23.6-3.1-35.4-4.6 8.3-37.5 18.6-83.9 25.9-115.7 1.6-7.2 3.1-13.6 4.4-19 1.7-7.1 2.9-12.5 3.7-15.6.1-.6.4-1.7.8-3.1.2-.8 6.5-34 7.8-38.4-2.9 2.3-5.9 4.6-8.8 7.2-6.8 5.8-13 11.6-18.5 17.3 1.1.1 2.2.1 3.3.2-.9 1.7-2.1 3.6-3.8 5.7-2 2.5-4.1 4.3-5.8 5.6h-.3c-2.9.4-5.8.8-8.6 1.2-15.1 2.1-30.3 4.2-45.4 6.3l-.1-.1c-1.1-2.6-2.4-6.4-2.9-11.2-.3-3.7 0-6.8.4-9.2 1.5.1 3.7.3 6.4.4 8.5-17.8 32.2-65.2 59.9-104.4 0 0 25.8-36.8 54.5-47.4l2.2-.8c2-.7 16.6-5.7 34.2-6.9 14.3-1 31.2-2.2 50.6 5.8 1.1.5 3.3 1.4 6.1 2.8 4.2 2.1 9.8 5.5 15.9 10.3 4.5 3.6 9.1 8 13.6 13.3 11.9 14.3 16 28 21.3 45 4.5 14.4 9.6 36.1 9.9 63.5 4-.4 7.9-.7 11.8-1z"/><path class="st24" d="M434.2 354.9c-50.9 2.2-126.5 5.5-165.3 7.4 2-2.3 4.2-4.7 6.7-7.1 40.5-2 108.9-5 152.7-6.8 1.9 1.9 3.8 3.9 5.6 6.1.1.1.2.3.3.4zm21.5 46.3c-56.5-4.1-176.4-12.7-205.6-14.2 1.5-2.2 2.9-4.3 4.4-6.5 37.5 2.1 155.7 10.6 199 13.8.5 1.7 1.1 3.5 1.6 5.2.3.6.4 1.1.6 1.7zm6.5 28.1c-70 1.3-219.9 4.1-240.8 5.1 1.2-2.3 2.5-4.6 3.9-6.9 35.7-1.3 189.6-4.1 235.8-5 .3 2.2.7 4.5 1.1 6.8zm9.3 43.2c-.4.7-.7 1.5-1.1 2.2L455 478c-48.3-3.8-120.5-9.3-175.5-13.5.7-3.1 1.2-5.4 1.5-6.3-2.4 1.9-4.8 3.8-7.3 5.9-30.3-2.3-54.6-4-65.7-4.7 1.1-2.1 2.2-4.3 3.4-6.6 44 2.9 215.7 16.3 260.1 19.7zm-29.1 18.6c-.4 2.3-.7 4.6-1.1 6.8-44.7 2.3-122.8 6.3-170.6 9 .7-2.9 1.2-5.2 1.7-6.9 51.8-2.9 135.1-7.1 170-8.9zm-5.8 38.3c-.1 2.2-.1 4.5-.2 6.8-47.8-1.8-126.2-4.6-171.2-6 .5-2.3 1-4.6 1.5-6.7 47.8 1.5 129.5 4.4 169.9 5.9zm-.4 22.5v6.8c-52.7 3.3-139.3 8.8-180 11.8l1.5-6.9c44.1-3.2 133.9-8.9 178.5-11.7zm1.2 51.1c-53.2-.1-147.6-.1-188.5.2.5-2.2 1-4.5 1.5-6.8 44.3-.4 142.8-.3 186.7-.2.1 2.3.2 4.5.3 6.8zm2.8 41.5c-54.5-5.1-158.4-14.8-196.6-18l1.5-6.6c41.5 3.4 150.2 13.6 194.5 17.8.2 2.3.4 4.6.6 6.8z" opacity=".3"/><path class="st3" d="M476.8 462.1c-1.8 3.5-3.5 7-5.3 10.5-.4.7-.7 1.5-1.1 2.2L455 478l-11 2.4c-.6 3.7-1.1 7.3-1.7 10.7-.4 2.3-.7 4.6-1.1 6.8-1.8 11.1-3.3 20.8-4.6 28.5 0 1-.1 2-.1 3-.1 2.2-.1 4.5-.2 6.8-.1 5.1-.2 10.4-.2 15.7v6.8c0 5.8.1 11.6.2 17.6.1 6.8.3 13.4.6 20 .1 2.3.2 4.5.3 6.8.6 11.9 1.3 23.5 2.3 34.7.2 2.3.4 4.6.6 6.8 0 .6.1 1.2.2 1.8-10.5 3.6-22.5 7.1-35.8 9.9-15.9 3.4-30.6 5.1-43.4 5.9 1.5-6.8 3.1-13.7 4.7-20.5-5.6 7.8-11.2 15.5-16.8 23.3-25.1-3.5-50.2-6.9-75.4-10.2-11.8-1.6-23.6-3.1-35.4-4.6 1.7-7.5 3.4-15.5 5.2-23.5l1.5-6.6c1.2-5.5 2.5-11.2 3.7-16.8.5-2.2 1-4.5 1.5-6.8 2-8.8 3.9-17.6 5.8-26l1.5-6.9c2.4-10.5 4.6-20.4 6.6-29.1.3-1.4.6-2.8 1-4.2.5-2.3 1-4.6 1.5-6.7 1.5-6.6 2.8-12.2 3.9-16.6.7-2.9 1.2-5.2 1.7-6.9 0-.1 0-.2.1-.3.1-.6.4-1.7.8-3.1.1-.6 4-21.1 6.3-32.1.7-3.1 1.2-5.4 1.5-6.3-2.4 1.9-4.8 3.8-7.3 5.9-.5.4-1 .9-1.5 1.3-6.8 5.8-13 11.6-18.5 17.3 1.1.1 2.2.1 3.3.2-.9 1.7-2.1 3.6-3.8 5.7-2 2.5-4.1 4.3-5.8 5.6h-.3c-18 2.5-36.1 5-54.1 7.5l-.1-.1c-1.1-2.6-2.4-6.4-2.8-11.2-.3-3.7 0-6.8.4-9.2 1.5.1 3.7.3 6.4.5 2.5-5.2 6.3-12.9 11.1-22.3 1.1-2.1 2.2-4.3 3.4-6.6 3-5.8 6.4-12 10-18.5 1.2-2.3 2.5-4.6 3.9-6.9 7.5-13.1 15.9-27.1 24.9-40.6 1.5-2.2 2.9-4.3 4.4-6.5.7-1.1 1.5-2.2 2.2-3.2 0 0 4.6-6.6 12.1-15 2-2.3 4.2-4.7 6.7-7.1 9.8-9.9 22.4-20.4 35.8-25.3 1.1-.4 2.1-.8 2.1-.8 2-.7 16.6-5.7 34.2-6.9 14.3-1 31.2-2.2 50.6 5.8 3.5 1.5 16.9 7.2 30 20.3 1.9 1.9 3.8 3.9 5.6 6.1.1.1.2.3.3.4 10.4 12.6 14.8 24.9 19.3 39.4.5 1.7 1.1 3.5 1.6 5.2.2.6.4 1.1.5 1.7 1.8 6 3.7 13.2 5.3 21.4.4 2.2.8 4.4 1.2 6.7 1.6 10 2.8 21.2 2.9 33.7 4.2-.1 8.1-.4 12-.7z"/><circle class="st41" cx="390.3" cy="419.2" r="3.2"/><circle class="st41" cx="390.3" cy="451.6" r="3.2"/><circle class="st41" cx="382.2" cy="547.7" r="3.2"/><circle class="st41" cx="376.9" cy="586.2" r="3.2"/><circle class="st41" cx="370.2" cy="624.3" r="3.2"/><linearGradient id="SVGID_12_" gradientUnits="userSpaceOnUse" x1="423.245" y1="379.679" x2="463.702" y2="467.729"><stop offset=".149" stop-color="#87aeb4" stop-opacity=".5"/><stop offset=".835" stop-color="#153e5c"/></linearGradient><path d="M476.8 462.1c-2.1 4.2-4.2 8.4-6.4 12.7l-26.4 5.7c2.1-21.5 2.5-52.7-6.1-88.6-4.7-19.8-11.2-36.8-17.6-50.6 4.5 3.6 9.1 8 13.6 13.3 11.9 14.3 16 28 21.3 45 4.5 14.4 9.6 36.1 9.9 63.5 3.9-.4 7.8-.7 11.7-1z" opacity=".17" fill="url(#SVGID_12_)"/><linearGradient id="SVGID_13_" gradientUnits="userSpaceOnUse" x1="361.297" y1="604.508" x2="440.401" y2="604.508"><stop offset=".195" stop-color="#87aeb4"/><stop offset=".835" stop-color="#153e5c"/></linearGradient><path d="M440.4 646.3c-10.5 3.6-22.5 7.1-35.8 9.9-15.9 3.4-30.6 5.1-43.3 5.9 1.6-6.8 3.1-13.6 4.7-20.5l70.3-94.9c-.1 9.6 0 19.4.2 29.4.5 24.8 1.9 48.2 3.9 70.2z" opacity=".07" fill="url(#SVGID_13_)"/><linearGradient id="SVGID_14_" gradientUnits="userSpaceOnUse" x1="238.513" y1="468.937" x2="299.194" y2="468.937"><stop offset=".19" stop-color="#87aeb4" stop-opacity=".6"/><stop offset=".835" stop-color="#153e5c"/></linearGradient><path d="M268.7 515.3c1.7-7.1 2.9-12.5 3.7-15.6.1-.6.4-1.7.8-3.1.2-.8 6.5-34 7.8-38.4-2.9 2.3-5.9 4.6-8.8 7.2-6.8 5.8-13 11.6-18.5 17.3 1.1.1 2.2.1 3.3.2-.9 1.7-2.1 3.6-3.8 5.7-2 2.5-4.1 4.3-5.8 5.6h-.3c-2.9.4-5.8.8-8.6 1.2 11.4-23 41.1-79.9 53-72.2 14.8 9.5 8.8 65.4-22.8 92.1z" opacity=".17" fill="url(#SVGID_14_)"/></g><path id="finger_front" class="st38" d="M333.7 513.5l28.7-32.7 2.2 7.2-12.6 15.9z"/><g id="coffee"><path class="st30" d="M408.3 465.2c-.2 1.3-.5 2.6-.7 3.9-1.5 8.3-2.9 16.6-4.3 24.9-2.6 15.4-5.2 30.7-7.7 45.9-8.1-.8-16.2-1.6-24.4-2.3-3.5-.3-7-.7-10.6-1-.5-20.3-1.4-59-1.7-71.4-.1-2.4-.1-3.8-.1-4 12.1 1 24.3 2 36.5 2.9 4.4.5 8.7.8 13 1.1z"/><path class="st31" d="M412.4 464.4l-.3 3.8c-.1.8-.8 1.4-1.5 1.3l-2.9-.2-13.5-1.1-35.1-2.9-3.8-.3c-.8-.1-1.4-.8-1.3-1.5l.3-3.8c.1-.8.8-1.4 1.5-1.3l40.4 3.3 14.8 1.2c.9 0 1.5.7 1.4 1.5z"/></g><path class="st45" d="M412.4 464.4l-.3 3.8c-.1.8-.8 1.4-1.5 1.3l-2.9-.2c-1.5 8.3-2.9 16.6-4.3 24.9-2.6 15.4-5.2 30.7-7.7 45.9-8.1-.8-16.2-1.6-24.4-2.3 5.1-15.3 16.6-49.9 22.9-69.6.4-1.4.9-2.7 1.2-3.9.3-.9.6-1.8.8-2.6l14.8 1.2c.9 0 1.5.7 1.4 1.5z"/><g id="hand_front"><path class="st38" d="M364 510.9c.1.9 1 1.5 1.9 1.3 11.6-.9 20.1-3.5 25.9-5.8 4-1.6 10.8-4.8 12.2-3 .6.8 0 2.1-.2 2.6-2.9 6.8-28.9 11.5-36.1 12.7-.6.5-1.4 1.2-1.2 1.7.4 1.3 7 .8 12.3-.5 9.1-2.2 13.6-4.2 13.6-4.2 1.2-.5 3.6-1.7 4.3-.8.6.6-.3 2.2-.4 2.5-1.5 2.9-4.8 4-6 4.4-8.2 2.7-17 4.1-19.5 4.5-2.7.5-5 .8-7.2 1.3-1.2.2-2.3.5-3.5.8-2.5.7-42 3.4-45.2 3.5-25.3 1.1-22 2-46.2 2.5-1.4 0-2.9.1-4.2.1-27.5.6-45.8.7-57.1-2.8-5.3-1.6-9.1-4-11.5-7.5-1.8-2.5-2.8-5.2-3.3-8.2-.8-4.4-.3-9.2.6-14.3l.1.1c18-2.5 36.1-5 54.1-7.5-.1.1-.1.2-.2.2.9 0 1.8 0 2.7.1 5.1.1 9.7.5 13.7.9 3.8.4 7.1.8 9.7 1.2h.2s53.5 8.2 65.6 5.7c.7-.1 1.3-.4 1.7-.6.1-.1.3-.2.3-.2.3-.2.5-.3 1.4-.9 4-2.4 14-8.1 27.7-12.2 3.3-1 6.1-1.7 7.8-2.1 0 0 19.1-5.3 22.9-1.5.1.1.4.4.5.8.1 2-7 3.8-9.7 4.5-6.8 1.8-15.8 4.2-28.3 8-.6.6-2 2-1.5 2.8.2.3.7.8 2.5.7 8.7-.1 26.9-6.3 26.9-6.3 7.2-2.5 11.6-3.6 13.4-1.6.1.1.8.9.8 1.9-.2 3.1-7.8 4.5-16.3 7-8.1 2.4-17.5 4.7-23.6 6.1-1 .4-1.7 1.2-1.6 2.1z"/><path class="st16" d="M249.7 494.8l-57.3 21.4c-.8-4.4-.3-9.2.6-14.3l.1.1c18-2.5 36.1-5 54.1-7.5-.1.1-.1.2-.2.2.9.1 1.8.1 2.7.1zm113.8 32.8c-1.2.2-2.3.5-3.5.8-2.5.7-42 3.4-45.2 3.5-25.3 1.1-22 2-46.2 2.5-1.4 0-2.9.1-4.2.1-27.5.6-45.8.7-57.1-2.8 26.5-15 128.1-6.7 156.2-4.1z"/><linearGradient id="SVGID_15_" gradientUnits="userSpaceOnUse" x1="263.461" y1="503.962" x2="339.055" y2="503.962"><stop offset=".002" stop-color="#ff931e"/><stop offset="1" stop-color="#fff"/></linearGradient><path d="M339.1 502.6c-29.1 21.3-62.8 2-75.6-6.9 3.8.4 7.1.8 9.7 1.2h.2c.1 0 53.5 8.3 65.7 5.7z" opacity=".13" fill="url(#SVGID_15_)"/></g><g id="head_general"><g id="neck"><path class="st38" d="M404.1 294.8c0 9.4-.2 19.5-1 30.2-.4 5.8-.9 11.7-1.6 17.8-.1.5-.1 1.1-.2 1.6-.8 6.7-1.7 13.2-2.7 19.4-2.3 14.3-5.3 27.4-8.4 39.1-3.8-5-9-11.9-15-20.1-5.8-7.9-10.3-14.3-13.8-19.5-10.6-15.8-11.9-20.6-11.7-25.8.3-9.7 5.2-10.1 8.6-26.5 2.4-11.2 2.2-20.9 1.6-27.5 14.8 3.8 29.5 7.6 44.2 11.3z"/><path class="st45" d="M403.1 325c-.4 5.8-.9 11.7-1.6 17.8-.1.5-.1 1.1-.2 1.6-12-2.4-36.5-9.9-32.1-31l33.9 11.6z"/></g><path class="st38" d="M422 294.5c-.3 3.2-.5 6.1-.8 8.7-1.1 12-2.1 18.4-4.8 21-3.5 3.4-8.9 5.1-15.1 5.4-3 .2-6.3 0-9.6-.5-7-1-14.4-3.5-20.9-7.3-4.5-2.6-8.7-5.8-12-9.6-1.3-1.5-2.5-3.1-3.6-4.7-1.4-2.2-2.7-5-10.6-46.3-1.4-7.3-2.5-13.3-3.3-17.5.8-6.8 2.5-13.1 5.3-18.5 9.4-9.3 24-8.7 33.7-18 7 .6 14 3.1 19.9 7.4 6.9 5.1 11.2 11.8 14.1 19.3.4 1 .8 2.1 1.1 3.1 1.3 3.7 2.3 7.5 3.1 11.3.3 1.1.5 2.2.7 3.3 0 0 .6 2.9 1.1 5.3 3.6 16 1.7 37.6 1.7 37.6z"/><linearGradient id="hair_2_" gradientUnits="userSpaceOnUse" x1="339.656" y1="251.846" x2="427.73" y2="251.846"><stop offset="0" stop-color="#002544"/><stop offset=".16" stop-color="#00172a"/><stop offset=".346" stop-color="#000a13"/><stop offset=".522" stop-color="#000305"/><stop offset=".672"/></linearGradient><path id="hair" d="M427.6 216.6c1.1 8.5-5.3 17-11.9 20.3-.9.5-1.8.8-3.6 1.4-19.1 6.8-24.8.5-30.8 6.2-11.1 10.4.1 39.1-6.2 41.1-1 .4-3 .1-4.1-1-1.4-1.4-.4-3.6-1-6.2-.9-3.6-4.7-7-6.3-6.4-4 1.4 1.4 28.6-4.9 40.2-.2.4-.6 1-1.2 1.1-3.9.7-12.4-21.2-15.4-43.2-3-22.2-4.5-33.2 2.1-42.1.8-1.1 1.6-2 2.5-2.8 9.4-9.3 24-8.7 33.7-18 2.7-2.6 3.6-4.3 3.9-4.8 2.9-5.7.3-10.4 2.4-11.7 2.1-1.3 7.2 1.4 9.3 5.6 1.9 3.7 1.3 8.4-1.4 12.3 2.4-.7 5.8-2 8.8-4.9 4.7-4.4 5-9.2 7.4-9.3 2.5 0 4.9 5.1 5.6 9.3 1.3 8.5-4.7 15.4-6.4 17.2-.2.1-.5.3-.5.2-.2-.2 3.8-2.6 6.9-6.3 3.8-4.4 3.8-7.3 5.6-7.4 2.2-.2 4.9 4.6 5.5 9.2z" fill="url(#hair_2_)"/><path id="smile" d="M408.4 313.3c-1.1 0-2.3-.1-3.5-.4-4.7-1-7.6-3.6-8.6-4.7-.2-.2-.2-.6 0-.8.2-.2.6-.2.8 0 .9 1 3.5 3.5 7.9 4.4 3.1.6 5.7.2 7.3-.2.3-.1.6.1.7.4.1.3-.1.6-.4.7-.9.3-2.4.6-4.2.6z"/><g id="eyes"><linearGradient id="SVGID_16_" gradientUnits="userSpaceOnUse" x1="418.714" y1="178.927" x2="424.195" y2="178.927" gradientTransform="scale(1 -1) rotate(-14.999 -1313.386 58.684)"><stop offset=".001"/><stop offset=".811"/></linearGradient><circle cx="393.5" cy="274.2" r="2.7" fill="url(#SVGID_16_)"/><linearGradient id="SVGID_17_" gradientUnits="userSpaceOnUse" x1="299.537" y1="274.155" x2="304.666" y2="274.155" gradientTransform="matrix(-1 0 0 1 718.748 0)"><stop offset=".001"/><stop offset=".811"/></linearGradient><circle cx="416.6" cy="274.2" r="2.6" fill="url(#SVGID_17_)"/></g><g id="brows"><linearGradient id="SVGID_18_" gradientUnits="userSpaceOnUse" x1="333.225" y1="272.207" x2="349.894" y2="272.207" gradientTransform="matrix(-1.0336 .2537 .2451 .9697 679.241 -87.646)"><stop offset=".001"/><stop offset=".811"/></linearGradient><path fill="url(#SVGID_18_)" d="M384 263.2l17.3-3.3.6 2.8-17.3 3.3z"/><linearGradient id="SVGID_19_" gradientUnits="userSpaceOnUse" x1="277.286" y1="259.191" x2="293.955" y2="259.191" gradientTransform="matrix(-.8625 -.07228 -.09955 .9946 689.992 25.539)"><stop offset=".001"/><stop offset=".811"/></linearGradient><path fill="url(#SVGID_19_)" d="M411 260.3l14.1 2.1-.4 2.7-14.1-2.1z"/></g><linearGradient id="beard_1_" gradientUnits="userSpaceOnUse" x1="366.324" y1="305.689" x2="421.782" y2="305.689"><stop offset=".001"/><stop offset=".811"/></linearGradient><path id="beard" d="M421.7 309.2c-.1-2.5-.3-4.5-.4-6-1 .1-2.6.2-4.4-.3-4.4-1-5.6-3.9-9.1-5.2-1.5-.6-2.8-.6-9.7.8-12.3 2.5-13.7 4-15.8 3.1-2.8-1.1-5.8-5.6-5.1-21.8-1.6.5-3.2 1-4.9 1.5-.6 2.1-1.6 5.3-2.4 9.1-3.1 13.7-4.7 20.5-2.6 26.2 4.7 12.3 24.1 16.1 36.2 14.9 4.5-.4 12.8-1.2 16.2-6.9 2.3-3.9 2.2-9.5 2-15.4zm-5.2 1.7c1.6 3.7-7.9 12.1-10 10.8-1-.7.3-3.4-1.5-5-.8-.7-2.1-1-3.2-.8-2.7.6-2.7 4.4-5.1 5.1-2.3.6-4.9-2.2-5.3-2.6-3.1-3.3-3.6-9.3-1.2-11.3 1.9-1.6 3.9.8 8.1-.1 5.6-1.2 7.8-6.4 10-5.5 1.6.7.6 3.3 2.9 6 2.1 2.5 4.5 1.8 5.3 3.4z" fill="url(#beard_1_)"/><path id="nose" d="M407.8 274.3c1.4 7.3 3.6 12.5 5.4 16 1.1 2 2.5 4.4 1.5 6.2-1.3 2.5-6.3 2.2-7 2.1-3.9-.2-6.7-2.3-7.6-3.2 2.6-6.9 5.1-14 7.7-21.1z" fill="#a2625e"/><g id="ear"><path class="st38" d="M371.6 285.8c-.5 1.4-1.4 2.8-2.5 3.9-4.4 4.4-11.6 4.4-16 0s-4.4-11.6 0-16l.2-.2c4.4-4.2 11.4-4.1 15.8.2 3.2 3.3 4 8.1 2.5 12.1z"/><linearGradient id="SVGID_20_" gradientUnits="userSpaceOnUse" x1="353.261" y1="278.14" x2="372.336" y2="278.14"><stop offset=".002" stop-color="#ff931e"/><stop offset="1" stop-color="#fff"/></linearGradient><path d="M371.6 285.8l-18.3-12.3c4.4-4.2 11.4-4.1 15.8.2 3.2 3.3 4 8.1 2.5 12.1z" opacity=".13" fill="url(#SVGID_20_)"/></g><path id="tshirt" class="st22" d="M398.6 363.8c-2.3 14.3-5.3 27.4-8.4 39.1-3.8-5-9-11.9-15-20.1-5.8-7.9-10.3-14.3-13.8-19.5 4.4.4 9.6.9 15.5 1.8 10.6 1.7 17.4.6 21.7-1.3z"/></g></g><g id="paper"><path class="st22" d="M751.8 586.8c1.8 0 3.2 1.5 3.2 3.3 0 1.8-1.4 3.3-3.2 3.3 1.8 0 3.2 1.5 3.2 3.3 0 1.3-.8 2.5-2 3 1.2.5 2 1.7 2 3 0 1.8-1.4 3.3-3.2 3.3 1.8 0 3.2 1.5 3.2 3.3 0 1.6-1.2 3-2.7 3.3 1.5.3 2.7 1.6 2.7 3.3 0 1.8-1.4 3.3-3.2 3.3 1.8 0 3.2 1.5 3.2 3.3 0 1.3-.8 2.5-2 3 1.2.5 2 1.7 2 3 0 1.8-1.4 3.3-3.2 3.3 1.8 0 3.2 1.5 3.2 3.3 0 1.8-1.5 3.3-3.3 3.3H625.2c-1.8 0-3.3-1.5-3.3-3.3 0-1.8 1.4-3.3 3.2-3.3-1.8 0-3.2-1.5-3.2-3.3 0-1.3.8-2.5 2-3-1.2-.5-2-1.7-2-3 0-1.8 1.4-3.3 3.2-3.3-1.8 0-3.2-1.5-3.2-3.3 0-1.6 1.2-3 2.7-3.3-1.5-.3-2.7-1.6-2.7-3.3 0-1.8 1.4-3.3 3.2-3.3-1.8 0-3.2-1.5-3.2-3.3 0-1.3.8-2.5 2-3-1.2-.5-2-1.7-2-3 0-1.8 1.4-3.3 3.2-3.3-1.8 0-3.2-1.5-3.2-3.3 0-1.8 1.4-3.3 3.2-3.3-1.8 0-3.2-1.5-3.2-3.3 0-1.3.8-2.5 2-3-1.2-.5-2-1.7-2-3 0-1.8 1.5-3.3 3.3-3.3h126.5c1.8 0 3.3 1.5 3.3 3.3 0 1.3-.8 2.5-2 3 1.2.5 2 1.7 2 3 0 1.8-1.4 3.2-3.2 3.3z"/><path d="M751.8 586.8c1.8 0 3.2 1.5 3.2 3.3 0 1.8-1.4 3.3-3.2 3.3 1.8 0 3.2 1.5 3.2 3.3 0 1.3-.8 2.5-2 3 1.2.5 2 1.7 2 3 0 1.8-1.4 3.3-3.2 3.3 1.8 0 3.2 1.5 3.2 3.3 0 1.6-1.2 3-2.7 3.3 1.5.3 2.7 1.6 2.7 3.3 0 1.8-1.4 3.3-3.2 3.3 1.8 0 3.2 1.5 3.2 3.3 0 1.3-.8 2.5-2 3 1.2.5 2 1.7 2 3 0 1.8-1.4 3.3-3.2 3.3 1.8 0 3.2 1.5 3.2 3.3 0 1.8-1.5 3.3-3.3 3.3h-77.5l37.5-64.4h40c1.8 0 3.3 1.5 3.3 3.3 0 1.3-.8 2.5-2 3 1.2.5 2 1.7 2 3 0 2-1.4 3.4-3.2 3.5z" opacity=".16" fill="#bdd3de"/></g><g id="plant"><path class="st31" d="M694.8 584.1c-.2 4.6.3 6-.5 8-.8 2.2-3.1 4.7-9.4 6.4-4.3 4.3-11.2 5.3-12.3 5.5 0-1.4 0-3.3.2-5.4-2.3 1.1-5.4 2.1-9.8 2.5v-.2c-2.2 1.5-4.2 2.3-4.7 2.5-.3-.8-.5-1.7-.8-2.5-1.7.3-3.5.2-5.5-.4-1.6 1.8-3.1 3.2-3.9 3.8-.6-.8-1.6-2.4-2.7-4.5-3.2-.8-6.8-2.4-9.5-6l-.2-.2c-4.2-5.7-3.3-12.6-2.9-15 .5-3.7 1.7-6.5 2.7-8.4 1.3 2 3.1 4.8 5.7 7.9.1-.7.1-1.3.2-2 1-6.5 3.6-11.3 5.5-14.4-.3 4.7.7 8 1.6 10.2.6 1.5 1.3 2.5 2 3.5.1-.4.1-.7.2-1.1.5-2.3 1.1-4.4 1.8-6.3 2.1 4 3.9 7.3 5.2 9.8.5-1.4 1-3.2 1.3-5.3.5-2.8.7-5.2.7-6.8 4 5.1 6.4 9.9 7.9 13.7.1.3.3.7.4 1 .8-1.8 1.7-3.6 2.7-5.5 2.9-5.3 6.1-9.4 9-12.6v17.1c.4-.4.7-.9 1.1-1.3 1.2-1.3 2.4-2.5 3.7-3.5.7 1.4 1.4 3.2 2.1 5.4 1.2-1.3 2.5-2.6 4-3.8 1.9-1.5 3.9-2.7 5.7-3.6-.3 2.4-1.2 6.5-1.5 11.5z"/><path d="M694.8 584.1c-.2 4.6.3 6-.5 8-.8 2.2-3.1 4.7-9.4 6.4-4.3 4.3-11.2 5.3-12.3 5.5 0-1.4 0-3.3.2-5.4-2.3 1.1-5.4 2.1-9.8 2.5v-.2c-2.2 1.5-4.2 2.3-4.7 2.5-.3-.8-.5-1.7-.8-2.5-1.7.3-3.5.2-5.5-.4-1.6 1.8-3.1 3.2-3.9 3.8-.6-.8-1.6-2.4-2.7-4.5-3.2-.8-6.8-2.4-9.5-6l-.2-.2c9.2 1.2 30.6 3.1 31.5-6.8.2-2.5.4-5 .5-7.4.1.3.3.7.4 1 .8-1.8 1.7-3.6 2.7-5.5 2.9-5.3 6.1-9.4 9-12.6v17.1c.4-.4.7-.9 1.1-1.3 1.2-1.3 2.4-2.5 3.7-3.5.7 1.4 1.4 3.2 2.1 5.4 1.2-1.3 2.5-2.6 4-3.8 1.9-1.5 3.9-2.7 5.7-3.6-.4 2.4-1.3 6.5-1.6 11.5z" opacity=".24" fill="#2a303d"/><path class="st24" d="M691.4 598v3.2c0 .2-.2.4-.5.4h-.8l-8.1 36.9h-33.8l-2-9.3-3-13.5-3.1-14h-1.9c-.3 0-.5-.2-.5-.4V598c0-.2.2-.4.5-.4h52.6c.4-.1.6.1.6.4z"/><linearGradient id="SVGID_21_" gradientUnits="userSpaceOnUse" x1="643.278" y1="626.995" x2="669.676" y2="626.995"><stop offset=".002" stop-color="#ff931e"/><stop offset="1" stop-color="#fff"/></linearGradient><path d="M669.7 638.4h-21.4l-2-9.3-3-13.5c7.6 6.4 19.5 16.8 26.4 22.8z" opacity=".13" fill="url(#SVGID_21_)"/><linearGradient id="SVGID_22_" gradientUnits="userSpaceOnUse" x1="639.38" y1="614.935" x2="650.802" y2="614.935"><stop offset="0" stop-color="#fff"/><stop offset="1" stop-color="#9375a1"/></linearGradient><path d="M646.3 629.1l-6.1-27.6h-.8c2.2-1 5-1.2 8.3.3 6.4 3.1 1.5 19.3-1.4 27.3z" opacity=".05" fill="url(#SVGID_22_)"/></g><g id="laptop_general"><path class="st22" d="M829 638.6H702.3c-2.6 0-5-1.7-5.8-4.2l-34.9-108.7c-.6-1.9.4-4 2.4-4.6 1.9-.6 4 .4 4.6 2.4l34.6 107.8H829c2 0 3.7 1.7 3.7 3.7s-1.6 3.6-3.7 3.6z"/><linearGradient id="SVGID_23_" gradientUnits="userSpaceOnUse" x1="661.451" y1="579.735" x2="832.733" y2="579.735"><stop offset="0" stop-color="#302e40"/><stop offset="1" stop-color="#9375a1" stop-opacity=".5"/></linearGradient><path d="M832.7 634.9c0 2-1.7 3.7-3.7 3.7H702.3c-1.1 0-2.2-.3-3.1-.8-1.3-.7-2.2-1.9-2.7-3.4l-34.9-108.7c-.6-1.9.4-4 2.4-4.7 1.9-.6 4 .5 4.6 2.4l34.6 107.8H829c2.1 0 3.7 1.7 3.7 3.7z" opacity=".5" fill="url(#SVGID_23_)"/><path class="st16" d="M832.7 634.9c0 2-1.7 3.7-3.7 3.7H702.3c-1.1 0-2.2-.3-3.1-.8l5.4-6.6H829c2.1 0 3.7 1.7 3.7 3.7z"/><path id="socket" d="M713.9 633.6h9.5v1.6h-9.5z"/></g></g></g></svg>